SplineFontDB: 3.2
FontName: Technology-Monospace-Bold
FullName: Technology-Monospace Bold
FamilyName: Technology-Monospace
Weight: Bold
Copyright: Copyright (c) 2018 by Vladimir Nikolic. All rights reserved.
Version: 1.000
ItalicAngle: 0
UnderlinePosition: -137
UnderlineWidth: 68
Ascent: 975
Descent: 25
InvalidEm: 0
sfntRevision: 0x00010000
LayerCount: 2
Layer: 0 1 "Back" 1
Layer: 1 1 "Fore" 0
XUID: [1021 342 -712948527 13410518]
StyleMap: 0x0020
FSType: 4
OS2Version: 3
OS2_WeightWidthSlopeOnly: 0
OS2_UseTypoMetrics: 0
CreationTime: 1545133596
ModificationTime: 1768156187
PfmFamily: 81
TTFWeight: 700
TTFWidth: 5
LineGap: 0
VLineGap: 0
Panose: 0 0 0 0 0 0 0 0 0 0
OS2TypoAscent: 1975
OS2TypoAOffset: 0
OS2TypoDescent: -25
OS2TypoDOffset: 0
OS2TypoLinegap: 0
OS2WinAscent: 1975
OS2WinAOffset: 0
OS2WinDescent: 25
OS2WinDOffset: 0
HheadAscent: 975
HheadAOffset: 0
HheadDescent: -25
HheadDOffset: 0
OS2SubXSize: 966
OS2SubYSize: 897
OS2SubXOff: 0
OS2SubYOff: 193
OS2SupXSize: 966
OS2SupYSize: 897
OS2SupXOff: 0
OS2SupYOff: 658
OS2StrikeYSize: 69
OS2StrikeYPos: 345
OS2CapHeight: 966
OS2XHeight: 690
OS2Vendor: 'PYRS'
OS2CodePages: 00000001.00000000
OS2UnicodeRanges: 00000001.00000000.00000000.00000000
MarkAttachClasses: 1
DEI: 91125
TtTable: prep
PUSHW_1
 0
CALL
SVTCA[y-axis]
PUSHW_3
 1
 1
 2
CALL
SVTCA[x-axis]
PUSHW_3
 2
 1
 2
CALL
SVTCA[x-axis]
PUSHW_8
 2
 64
 53
 41
 30
 18
 0
 8
CALL
SVTCA[y-axis]
PUSHW_8
 1
 64
 53
 41
 30
 18
 0
 8
CALL
SVTCA[y-axis]
PUSHW_3
 3
 4
 7
CALL
PUSHW_1
 0
DUP
RCVT
RDTG
ROUND[Black]
RTG
WCVTP
EndTTInstrs
TtTable: fpgm
PUSHW_1
 0
FDEF
MPPEM
PUSHW_1
 9
LT
IF
PUSHB_2
 1
 1
INSTCTRL
EIF
PUSHW_1
 511
SCANCTRL
PUSHW_1
 68
SCVTCI
PUSHW_2
 9
 3
SDS
SDB
ENDF
PUSHW_1
 1
FDEF
DUP
DUP
RCVT
ROUND[Black]
WCVTP
PUSHB_1
 1
ADD
ENDF
PUSHW_1
 2
FDEF
PUSHW_1
 1
LOOPCALL
POP
ENDF
PUSHW_1
 3
FDEF
DUP
GC[cur]
PUSHB_1
 3
CINDEX
GC[cur]
GT
IF
SWAP
EIF
DUP
ROLL
DUP
ROLL
MD[grid]
ABS
ROLL
DUP
GC[cur]
DUP
ROUND[Grey]
SUB
ABS
PUSHB_1
 4
CINDEX
GC[cur]
DUP
ROUND[Grey]
SUB

StartChar: E
Encoding: 69 69 4
Width: 616
VWidth: 1379
GlyphClass: 1
Flags: W
LayerCount: 2
Fore
SplineSet
439 834 m 2,0,1
 436 831 436 831 432 832 c 2,2,-1
 181 832 l 2,3,4
 177 832 177 832 174 834 c 2,5,-1
 73 935 l 2,6,7
 67 941 67 941 70 946.5 c 128,-1,8
 73 952 73 952 80 952 c 2,9,-1
 532 952 l 2,10,11
 539 952 539 952 542 946.5 c 128,-1,12
 545 941 545 941 539 935 c 2,13,-1
 439 834 l 2,0,1
164 564 m 2,14,15
 164 560 164 560 161 557 c 2,16,-1
 87 481 l 2,17,18
 80 474 80 474 73 481 c 2,19,-1
 47 508 l 2,20,21
 44 511 44 511 44 514 c 2,22,-1
 44 917 l 2,23,24
 44 924 44 924 49.5 927 c 128,-1,25
 55 930 55 930 61 924 c 2,26,-1
 161 823 l 2,27,28
 164 820 164 820 164 817 c 2,29,-1
 164 564 l 2,14,15
502 483 m 2,30,31
 509 476 509 476 502 469 c 2,32,-1
 452 419 l 2,33,34
 449 416 449 416 446 417 c 2,35,-1
 167 417 l 2,36,37
 163 417 163 417 160 419 c 2,38,-1
 110 469 l 2,39,40
 103 476 103 476 110 483 c 2,41,-1
 160 532 l 2,42,43
 163 535 163 535 167 535 c 2,44,-1
 446 535 l 2,45,46
 450 535 450 535 452 532 c 2,47,-1
 502 483 l 2,30,31
164 132 m 1,48,-1
 61 29 l 2,49,50
 55 23 55 23 49.5 25.5 c 128,-1,51
 44 28 44 28 44 34 c 2,52,-1
 44 439 l 2,53,54
 44 443 44 443 47 446 c 2,55,-1
 73 470 l 2,56,57
 80 477 80 477 87 470 c 2,58,-1
 161 394 l 2,59,60
 164 391 164 391 164 388 c 2,61,-1
 164 132 l 1,48,-1
80 0 m 2,62,63
 73 0 73 0 70.5 5.5 c 128,-1,64
 68 11 68 11 73 17 c 2,65,-1
 174 117 l 2,66,67
 177 120 177 120 181 120 c 2,68,-1
 432 120 l 2,69,70
 436 120 436 120 439 117 c 2,71,-1
 539 17 l 2,72,73
 545 11 545 11 542 5.5 c 128,-1,74
 539 0 539 0 532 0 c 2,75,-1
 80 0 l 2,62,63
EndSplineSet
Validated: 1
EndChar

StartChar: F
Encoding: 70 70 5
Width: 616
VWidth: 1379
GlyphClass: 1
Flags: W
LayerCount: 2
Fore
SplineSet
161 109 m 2,0,1
 161 103 161 103 159 103 c 2,2,-1
 58 3 l 2,3,4
 52 -3 52 -3 47.5 0 c 128,-1,5
 43 3 43 3 43 10 c 2,6,-1
 43 437 l 2,7,8
 43 443 43 443 44 444 c 2,9,-1
 70 469 l 2,10,11
 77 476 77 476 84 469 c 2,12,-1
 159 393 l 2,13,14
 162 390 162 390 161 386 c 2,15,-1
 161 109 l 2,0,1
450 418 m 2,16,17
 447 415 447 415 443 415 c 2,18,-1
 164 415 l 2,19,20
 160 415 160 415 157 418 c 2,21,-1
 108 468 l 2,22,23
 101 475 101 475 108 481 c 2,24,-1
 157 532 l 2,25,26
 160 535 160 535 164 535 c 2,27,-1
 443 535 l 2,28,29
 447 535 447 535 450 532 c 2,30,-1
 499 481 l 2,31,32
 506 474 506 474 499 468 c 2,33,-1
 450 418 l 2,16,17
436 833 m 2,34,35
 433 830 433 830 429 830 c 2,36,-1
 178 830 l 2,37,38
 174 830 174 830 171 833 c 2,39,-1
 70 934 l 2,40,41
 64 940 64 940 67 945 c 128,-1,42
 70 950 70 950 77 950 c 2,43,-1
 530 950 l 2,44,45
 537 950 537 950 539.5 944.5 c 128,-1,46
 542 939 542 939 537 934 c 2,47,-1
 436 833 l 2,34,35
161 563 m 2,48,49
 161 559 161 559 159 556 c 2,50,-1
 84 481 l 2,51,52
 77 474 77 474 70 481 c 2,53,-1
 44 506 l 2,54,55
 43 507 43 507 43 513 c 2,56,-1
 43 916 l 2,57,58
 43 923 43 923 47.5 925.5 c 128,-1,59
 52 928 52 928 58 923 c 2,60,-1
 159 822 l 2,61,62
 162 819 162 819 161 815 c 2,63,-1
 161 563 l 2,48,49
EndSplineSet
Validated: 1
EndChar

StartChar: G
Encoding: 71 71 6
Width: 616
VWidth: 1379
GlyphClass: 1
Flags: W
LayerCount: 2
Fore
SplineSet
490 3 m 2,0,1
 487 0 487 0 483 0 c 2,2,-1
 130 0 l 2,3,4
 126 0 126 0 123 3 c 2,5,-1
 98 29 l 2,6,7
 91 35 91 35 98 41 c 2,8,-1
 174 116 l 2,9,10
 177 119 177 119 181 119 c 2,11,-1
 432 119 l 2,12,13
 436 119 436 119 439 116 c 2,14,-1
 514 41 l 2,15,16
 520 34 520 34 514 29 c 2,17,-1
 490 3 l 2,0,1
539 52 m 2,18,19
 532 45 532 45 527 52 c 2,20,-1
 451 128 l 2,21,22
 448 131 448 131 448 135 c 2,23,-1
 448 386 l 2,24,25
 448 390 448 390 451 393 c 2,26,-1
 527 469 l 2,27,28
 533 475 533 475 539 469 c 2,29,-1
 566 446 l 2,30,31
 569 443 569 443 568 439 c 2,32,-1
 568 86 l 2,33,34
 568 82 568 82 566 79 c 2,35,-1
 539 52 l 2,18,19
465 832 m 1,36,-1
 181 832 l 2,37,38
 177 832 177 832 174 834 c 2,39,-1
 98 910 l 2,40,41
 91 917 91 917 98 924 c 2,42,-1
 123 948 l 2,43,44
 126 951 126 951 130 950 c 2,45,-1
 561 950 l 2,46,47
 568 950 568 950 571 944.5 c 128,-1,48
 574 939 574 939 568 934 c 2,49,-1
 465 832 l 1,36,-1
87 52 m 2,50,51
 80 45 80 45 73 52 c 2,52,-1
 48 79 l 2,53,54
 45 82 45 82 46 86 c 2,55,-1
 46 439 l 2,56,57
 46 443 46 443 48 446 c 2,58,-1
 73 469 l 2,59,60
 80 476 80 476 87 469 c 2,61,-1
 161 393 l 2,62,63
 164 390 164 390 164 386 c 2,64,-1
 164 135 l 2,65,66
 164 131 164 131 161 128 c 2,67,-1
 87 52 l 2,50,51
87 481 m 2,68,69
 80 474 80 474 73 481 c 2,70,-1
 48 508 l 2,71,72
 45 511 45 511 46 514 c 2,73,-1
 46 865 l 2,74,75
 46 869 46 869 48 872 c 2,76,-1
 73 898 l 2,77,78
 80 905 80 905 87 898 c 2,79,-1
 161 822 l 2,80,81
 164 819 164 819 164 815 c 2,82,-1
 164 564 l 2,83,84
 164 560 164 560 161 557 c 2,85,-1
 87 481 l 2,68,69
452 418 m 2,86,87
 449 415 449 415 446 415 c 2,88,-1
 286 415 l 2,89,90
 282 415 282 415 279 418 c 2,91,-1
 229 469 l 2,92,93
 222 476 222 476 229 483 c 2,94,-1
 279 532 l 2,95,96
 282 535 282 535 286 535 c 2,97,-1
 446 535 l 2,98,99
 450 535 450 535 452 532 c 2,100,-1
 502 483 l 2,101,102
 509 476 509 476 502 469 c 2,103,-1
 452 418 l 2,86,87
EndSplineSet
Validated: 1
EndChar

StartChar: H
Encoding: 72 72 7
Width: 616
VWidth: 1379
GlyphClass: 1
Flags: W
LayerCount: 2
Fore
SplineSet
450 106 m 1,0,-1
 450 388 l 2,1,2
 450 392 450 392 452 394 c 2,3,-1
 528 470 l 2,4,5
 534 476 534 476 541 470 c 2,6,-1
 566 446 l 2,7,8
 569 443 569 443 568 439 c 2,9,-1
 568 10 l 2,10,11
 568 3 568 3 562.5 0 c 128,-1,12
 557 -3 557 -3 552 3 c 2,13,-1
 450 106 l 1,0,-1
568 514 m 2,14,15
 568 510 568 510 566 508 c 2,16,-1
 541 481 l 2,17,18
 534 474 534 474 528 481 c 2,19,-1
 452 557 l 2,20,21
 449 560 449 560 450 564 c 2,22,-1
 450 846 l 1,23,-1
 552 949 l 2,24,25
 558 955 558 955 563 952 c 128,-1,26
 568 949 568 949 568 942 c 2,27,-1
 568 514 l 2,14,15
166 564 m 2,28,29
 166 560 166 560 163 557 c 2,30,-1
 87 481 l 2,31,32
 80 474 80 474 73 481 c 2,33,-1
 50 508 l 2,34,35
 47 511 47 511 47 514 c 2,36,-1
 47 942 l 2,37,38
 47 949 47 949 52 951.5 c 128,-1,39
 57 954 57 954 62 949 c 2,40,-1
 166 846 l 1,41,-1
 166 564 l 2,28,29
454 419 m 2,42,43
 451 416 451 416 447 417 c 2,44,-1
 168 417 l 2,45,46
 164 417 164 417 161 419 c 2,47,-1
 112 469 l 2,48,49
 105 476 105 476 112 483 c 2,50,-1
 161 532 l 2,51,52
 164 535 164 535 168 535 c 2,53,-1
 447 535 l 2,54,55
 451 535 451 535 454 532 c 2,56,-1
 503 483 l 2,57,58
 510 476 510 476 503 469 c 2,59,-1
 454 419 l 2,42,43
62 3 m 2,60,61
 56 -3 56 -3 51.5 0 c 128,-1,62
 47 3 47 3 47 10 c 2,63,-1
 47 439 l 2,64,65
 47 443 47 443 50 446 c 2,66,-1
 73 470 l 2,67,68
 80 477 80 477 87 470 c 2,69,-1
 163 394 l 2,70,71
 166 391 166 391 166 388 c 2,72,-1
 166 110 l 2,73,74
 166 106 166 106 163 103 c 2,75,-1
 62 3 l 2,60,61
EndSplineSet
Validated: 1
EndChar

StartChar: I
Encoding: 73 73 8
Width: 616
VWidth: 1379
GlyphClass: 1
Flags: W
LayerCount: 2
Fore
SplineSet
539 481 m 6,0,1
 532 474 532 474 526 481 c 6,2,-1
 450 557 l 6,3,4
 447 560 447 560 447 564 c 6,5,-1
 447 865 l 6,6,7
 447 869 447 869 450 872 c 6,8,-1
 526 948 l 6,9,10
 533 955 533 955 539 948 c 6,11,-1
 564 923 l 6,12,13
 567 920 567 920 567 916 c 6,14,-1
 567 513 l 6,15,16
 567 509 567 509 564 506 c 6,17,-1
 539 481 l 6,0,1
539 3 m 6,18,19
 532 -4 532 -4 526 3 c 6,20,-1
 450 79 l 6,21,22
 447 82 447 82 447 86 c 6,23,-1
 447 386 l 6,24,25
 447 390 447 390 450 393 c 6,26,-1
 526 469 l 6,27,28
 533 476 533 476 539 469 c 6,29,-1
 564 444 l 6,30,31
 567 441 567 441 567 437 c 6,32,-1
 567 34 l 6,33,34
 567 30 567 30 564 28 c 6,35,-1
 539 3 l 6,18,19
EndSplineSet
Validated: 1
EndChar

StartChar: J
Encoding: 74 74 9
Width: 616
VWidth: 1379
GlyphClass: 1
Flags: W
LayerCount: 2
Fore
SplineSet
539 481 m 2,0,1
 532 474 532 474 527 481 c 2,2,-1
 451 557 l 2,3,4
 448 560 448 560 448 564 c 2,5,-1
 448 841 l 2,6,7
 448 845 448 845 451 848 c 2,8,-1
 550 948 l 2,9,10
 556 954 556 954 561.5 951 c 128,-1,11
 567 948 567 948 567 941 c 2,12,-1
 567 510 l 1,13,-1
 539 481 l 2,0,1
451 128 m 2,14,15
 448 131 448 131 448 135 c 2,16,-1
 448 386 l 2,17,18
 448 390 448 390 451 393 c 2,19,-1
 527 469 l 2,20,21
 533 475 533 475 539 469 c 2,22,-1
 564 446 l 2,23,24
 567 443 567 443 567 439 c 2,25,-1
 567 34 l 2,26,27
 567 27 567 27 561.5 25 c 128,-1,28
 556 23 556 23 550 29 c 2,29,-1
 451 128 l 2,14,15
79 0 m 2,30,31
 72 0 72 0 69 5.5 c 128,-1,32
 66 11 66 11 72 17 c 2,33,-1
 174 117 l 2,34,35
 177 120 177 120 181 120 c 2,36,-1
 432 120 l 2,37,38
 436 120 436 120 439 117 c 2,39,-1
 539 17 l 2,40,41
 545 11 545 11 543 5.5 c 128,-1,42
 541 0 541 0 534 0 c 2,43,-1
 79 0 l 2,30,31
61 29 m 2,44,45
 55 23 55 23 50.5 25.5 c 128,-1,46
 46 28 46 28 46 34 c 2,47,-1
 46 379 l 2,48,49
 46 386 46 386 50.5 388 c 128,-1,50
 55 390 55 390 61 385 c 2,51,-1
 161 286 l 2,52,53
 164 283 164 283 164 279 c 2,54,-1
 164 135 l 2,55,56
 164 131 164 131 161 128 c 2,57,-1
 61 29 l 2,44,45
EndSplineSet
Validated: 1
EndChar

StartChar: K
Encoding: 75 75 10
Width: 616
VWidth: 1379
GlyphClass: 1
Flags: W
LayerCount: 2
Fore
SplineSet
567 10 m 2,0,1
 567 3 567 3 561.5 0 c 128,-1,2
 556 -3 556 -3 550 3 c 2,3,-1
 451 103 l 2,4,5
 448 103 448 103 448 109 c 2,6,-1
 448 386 l 2,7,8
 448 390 448 390 451 393 c 2,9,-1
 527 469 l 2,10,11
 533 475 533 475 539 469 c 2,12,-1
 564 444 l 2,13,14
 567 441 567 441 567 437 c 2,15,-1
 567 10 l 2,0,1
567 869 m 2,16,17
 567 865 567 865 564 862 c 2,18,-1
 257 554 l 2,19,20
 254 551 254 551 250 552 c 2,21,-1
 189 552 l 2,22,23
 181 552 181 552 181 561 c 2,24,-1
 181 646 l 2,25,26
 181 650 181 650 183 652 c 2,27,-1
 480 948 l 2,28,29
 483 951 483 951 487 950 c 2,30,-1
 557 950 l 2,31,32
 567 950 567 950 567 941 c 2,33,-1
 567 869 l 2,16,17
164 563 m 2,34,35
 164 559 164 559 161 556 c 2,36,-1
 86 481 l 2,37,38
 79 474 79 474 72 481 c 2,39,-1
 48 506 l 2,40,41
 45 509 45 509 46 513 c 2,42,-1
 46 941 l 2,43,44
 46 948 46 948 50.5 950.5 c 128,-1,45
 55 953 55 953 61 948 c 2,46,-1
 164 844 l 1,47,-1
 164 563 l 2,34,35
452 418 m 2,48,49
 449 415 449 415 446 415 c 2,50,-1
 167 415 l 2,51,52
 163 415 163 415 160 418 c 2,53,-1
 110 468 l 2,54,55
 103 475 103 475 110 481 c 2,56,-1
 160 532 l 2,57,58
 163 535 163 535 167 535 c 2,59,-1
 446 535 l 2,60,61
 450 535 450 535 452 532 c 2,62,-1
 502 481 l 2,63,64
 509 474 509 474 502 468 c 2,65,-1
 452 418 l 2,48,49
164 109 m 2,66,67
 164 103 164 103 161 103 c 2,68,-1
 61 3 l 2,69,70
 55 -3 55 -3 50.5 0 c 128,-1,71
 46 3 46 3 46 10 c 2,72,-1
 46 437 l 2,73,74
 46 441 46 441 48 444 c 2,75,-1
 72 469 l 2,76,77
 79 476 79 476 86 469 c 2,78,-1
 161 393 l 2,79,80
 164 390 164 390 164 386 c 2,81,-1
 164 109 l 2,66,67
EndSplineSet
Validated: 1
EndChar

StartChar: M
Encoding: 77 77 11
Width: 616
VWidth: 1379
GlyphClass: 1
Flags: W
LayerCount: 2
Fore
SplineSet
450 103 m 2,0,1
 447 106 447 106 447 110 c 2,2,-1
 447 388 l 2,3,4
 447 392 447 392 450 394 c 2,5,-1
 526 470 l 2,6,7
 533 477 533 477 539 470 c 2,8,-1
 564 446 l 2,9,10
 567 443 567 443 567 439 c 2,11,-1
 567 10 l 2,12,13
 567 3 567 3 561.5 0 c 128,-1,14
 556 -3 556 -3 550 3 c 2,15,-1
 450 103 l 2,0,1
567 514 m 2,16,17
 567 510 567 510 564 508 c 2,18,-1
 539 481 l 2,19,20
 532 474 532 474 526 481 c 2,21,-1
 450 557 l 2,22,23
 447 560 447 560 447 564 c 2,24,-1
 447 815 l 2,25,26
 447 819 447 819 450 822 c 2,27,-1
 550 924 l 2,28,29
 556 930 556 930 561.5 927 c 128,-1,30
 567 924 567 924 567 917 c 2,31,-1
 567 514 l 2,16,17
310 457 m 2,32,33
 303 450 303 450 297 457 c 2,34,-1
 246 508 l 2,35,36
 243 511 243 511 243 514 c 2,37,-1
 243 806 l 2,38,39
 243 816 243 816 252 815 c 2,40,-1
 354 815 l 2,41,42
 364 815 364 815 364 806 c 2,43,-1
 364 514 l 2,44,45
 364 510 364 510 361 508 c 2,46,-1
 310 457 l 2,32,33
439 834 m 2,47,48
 436 831 436 831 432 832 c 2,49,-1
 177 832 l 2,50,51
 173 832 173 832 170 834 c 2,52,-1
 68 935 l 2,53,54
 64 939 64 939 66 946 c 0,55,56
 67 952 67 952 74 952 c 2,57,-1
 532 952 l 2,58,59
 539 952 539 952 542 946.5 c 128,-1,60
 545 941 545 941 539 935 c 2,61,-1
 439 834 l 2,47,48
160 564 m 2,62,63
 160 560 160 560 157 557 c 2,64,-1
 81 481 l 2,65,66
 74 474 74 474 68 481 c 2,67,-1
 43 508 l 2,68,69
 40 511 40 511 40 514 c 2,70,-1
 40 917 l 2,71,72
 40 924 40 924 45.5 927 c 128,-1,73
 51 930 51 930 57 924 c 2,74,-1
 157 822 l 2,75,76
 160 819 160 819 160 815 c 2,77,-1
 160 564 l 2,62,63
57 3 m 2,78,79
 51 -3 51 -3 45.5 0 c 128,-1,80
 40 3 40 3 40 10 c 2,81,-1
 40 439 l 2,82,83
 40 443 40 443 43 446 c 2,84,-1
 68 470 l 2,85,86
 75 477 75 477 81 470 c 2,87,-1
 157 394 l 2,88,89
 160 391 160 391 160 388 c 2,90,-1
 160 110 l 2,91,92
 160 106 160 106 157 103 c 2,93,-1
 57 3 l 2,78,79
EndSplineSet
Validated: 1
EndChar

StartChar: N
Encoding: 78 78 12
Width: 616
VWidth: 1379
GlyphClass: 1
Flags: W
LayerCount: 2
Fore
SplineSet
541 3 m 2,0,1
 534 -4 534 -4 528 3 c 2,2,-1
 452 79 l 2,3,4
 449 82 449 82 450 86 c 2,5,-1
 450 386 l 2,6,7
 450 390 450 390 452 393 c 2,8,-1
 528 469 l 2,9,10
 534 475 534 475 541 469 c 2,11,-1
 566 444 l 2,12,13
 569 441 569 441 568 437 c 2,14,-1
 568 34 l 2,15,16
 568 30 568 30 566 28 c 2,17,-1
 541 3 l 2,0,1
541 481 m 2,18,19
 534 474 534 474 528 481 c 2,20,-1
 452 557 l 2,21,22
 449 560 449 560 450 564 c 2,23,-1
 450 865 l 2,24,25
 450 869 450 869 452 872 c 2,26,-1
 528 948 l 2,27,28
 534 954 534 954 541 948 c 2,29,-1
 566 923 l 2,30,31
 569 920 569 920 568 916 c 2,32,-1
 568 513 l 2,33,34
 568 509 568 509 566 506 c 2,35,-1
 541 481 l 2,18,19
433 564 m 2,36,37
 433 554 433 554 423 554 c 2,38,-1
 382 554 l 1,39,-1
 185 750 l 2,40,41
 182 753 182 753 182 757 c 2,42,-1
 182 865 l 2,43,44
 182 875 182 875 190 874 c 2,45,-1
 226 874 l 2,46,47
 230 874 230 874 233 872 c 2,48,-1
 430 674 l 2,49,50
 433 671 433 671 433 668 c 2,51,-1
 433 564 l 2,36,37
87 481 m 2,52,53
 80 474 80 474 73 481 c 2,54,-1
 50 506 l 2,55,56
 47 509 47 509 47 513 c 2,57,-1
 47 916 l 2,58,59
 47 920 47 920 50 923 c 2,60,-1
 73 948 l 2,61,62
 80 955 80 955 87 948 c 2,63,-1
 163 872 l 2,64,65
 166 869 166 869 166 865 c 2,66,-1
 166 564 l 2,67,68
 166 560 166 560 163 557 c 2,69,-1
 87 481 l 2,52,53
87 3 m 2,70,71
 80 -4 80 -4 73 3 c 2,72,-1
 50 28 l 2,73,74
 47 31 47 31 47 34 c 2,75,-1
 47 437 l 2,76,77
 47 441 47 441 50 444 c 2,78,-1
 73 469 l 2,79,80
 80 476 80 476 87 469 c 2,81,-1
 163 393 l 2,82,83
 166 390 166 390 166 386 c 2,84,-1
 166 86 l 2,85,86
 166 82 166 82 163 79 c 2,87,-1
 87 3 l 2,70,71
EndSplineSet
Validated: 1
EndChar

StartChar: L
Encoding: 76 76 13
Width: 562
VWidth: 1379
GlyphClass: 1
Flags: W
LayerCount: 2
Fore
SplineSet
87 481 m 2,0,1
 80 474 80 474 73 481 c 2,2,-1
 47 508 l 2,3,4
 44 511 44 511 44 514 c 2,5,-1
 44 942 l 2,6,7
 44 949 44 949 49.5 951.5 c 128,-1,8
 55 954 55 954 61 949 c 2,9,-1
 164 846 l 1,10,-1
 164 564 l 2,11,12
 164 560 164 560 161 557 c 2,13,-1
 87 481 l 2,0,1
80 0 m 2,14,15
 73 0 73 0 70.5 5.5 c 128,-1,16
 68 11 68 11 73 17 c 2,17,-1
 174 117 l 2,18,19
 177 120 177 120 181 120 c 2,20,-1
 432 120 l 2,21,22
 436 120 436 120 439 117 c 2,23,-1
 539 17 l 2,24,25
 545 11 545 11 542 5.5 c 128,-1,26
 539 0 539 0 532 0 c 2,27,-1
 80 0 l 2,14,15
61 29 m 2,28,29
 55 23 55 23 49.5 25.5 c 128,-1,30
 44 28 44 28 44 34 c 2,31,-1
 44 439 l 2,32,33
 44 443 44 443 47 446 c 2,34,-1
 73 470 l 2,35,36
 80 477 80 477 87 470 c 2,37,-1
 161 394 l 2,38,39
 164 391 164 391 164 388 c 2,40,-1
 164 137 l 2,41,42
 164 133 164 133 161 130 c 2,43,-1
 61 29 l 2,28,29
EndSplineSet
Validated: 1
EndChar

StartChar: O
Encoding: 79 79 14
Width: 616
VWidth: 1379
GlyphClass: 1
Flags: W
LayerCount: 2
Fore
SplineSet
539 54 m 2,0,1
 532 47 532 47 527 54 c 2,2,-1
 451 128 l 2,3,4
 448 131 448 131 448 135 c 2,5,-1
 448 388 l 2,6,7
 448 392 448 392 451 394 c 2,8,-1
 527 470 l 2,9,10
 533 476 533 476 539 470 c 2,11,-1
 566 446 l 2,12,13
 569 443 569 443 568 439 c 2,14,-1
 568 86 l 2,15,16
 568 82 568 82 566 79 c 2,17,-1
 539 54 l 2,0,1
539 481 m 2,18,19
 532 474 532 474 527 481 c 2,20,-1
 451 557 l 2,21,22
 448 560 448 560 448 564 c 2,23,-1
 448 817 l 2,24,25
 448 821 448 821 451 823 c 2,26,-1
 527 898 l 2,27,28
 533 904 533 904 539 898 c 2,29,-1
 566 873 l 2,30,31
 569 870 569 870 568 866 c 2,32,-1
 568 514 l 2,33,34
 568 510 568 510 566 508 c 2,35,-1
 539 481 l 2,18,19
440 834 m 2,36,37
 437 831 437 831 433 832 c 2,38,-1
 181 832 l 2,39,40
 177 832 177 832 174 834 c 2,41,-1
 98 910 l 2,42,43
 91 917 91 917 98 924 c 2,44,-1
 123 949 l 2,45,46
 126 952 126 952 130 952 c 2,47,-1
 483 952 l 2,48,49
 487 952 487 952 490 949 c 2,50,-1
 514 924 l 2,51,52
 521 917 521 917 514 910 c 2,53,-1
 440 834 l 2,36,37
87 481 m 2,54,55
 80 474 80 474 73 481 c 2,56,-1
 48 508 l 2,57,58
 45 511 45 511 46 514 c 2,59,-1
 46 866 l 2,60,61
 46 870 46 870 48 873 c 2,62,-1
 73 898 l 2,63,64
 80 905 80 905 87 898 c 2,65,-1
 163 823 l 2,66,67
 166 820 166 820 166 817 c 2,68,-1
 166 564 l 2,69,70
 166 560 166 560 163 557 c 2,71,-1
 87 481 l 2,54,55
87 54 m 2,72,73
 80 47 80 47 73 54 c 2,74,-1
 48 79 l 2,75,76
 45 82 45 82 46 86 c 2,77,-1
 46 439 l 2,78,79
 46 443 46 443 48 446 c 2,80,-1
 73 470 l 2,81,82
 80 477 80 477 87 470 c 2,83,-1
 163 394 l 2,84,85
 166 391 166 391 166 388 c 2,86,-1
 166 135 l 2,87,88
 166 131 166 131 163 128 c 2,89,-1
 87 54 l 2,72,73
490 3 m 2,90,91
 487 0 487 0 483 0 c 2,92,-1
 130 0 l 2,93,94
 126 0 126 0 123 3 c 2,95,-1
 98 29 l 2,96,97
 91 35 91 35 98 41 c 2,98,-1
 174 117 l 2,99,100
 177 120 177 120 181 120 c 2,101,-1
 433 120 l 2,102,103
 437 120 437 120 440 117 c 2,104,-1
 514 41 l 2,105,106
 520 34 520 34 514 29 c 2,107,-1
 490 3 l 2,90,91
EndSplineSet
Validated: 1
EndChar

StartChar: P
Encoding: 80 80 15
Width: 602
VWidth: 1379
GlyphClass: 1
Flags: W
LayerCount: 2
Fore
SplineSet
538 481 m 2,0,1
 531 474 531 474 526 481 c 2,2,-1
 450 557 l 2,3,4
 447 560 447 560 447 564 c 2,5,-1
 447 815 l 2,6,7
 447 819 447 819 450 822 c 2,8,-1
 526 898 l 2,9,10
 532 904 532 904 538 898 c 2,11,-1
 564 872 l 2,12,13
 567 869 567 869 567 865 c 2,14,-1
 567 513 l 2,15,16
 567 509 567 509 564 506 c 2,17,-1
 538 481 l 2,0,1
439 834 m 2,18,19
 436 831 436 831 432 832 c 2,20,-1
 179 832 l 2,21,22
 175 832 175 832 172 834 c 2,23,-1
 156 851 l 2,24,25
 137 869 137 869 112.5 891.5 c 128,-1,26
 88 914 88 914 72 934 c 0,27,28
 68 940 68 940 70 945 c 128,-1,29
 72 950 72 950 79 950 c 2,30,-1
 481 950 l 2,31,32
 485 950 485 950 488 948 c 2,33,-1
 514 923 l 2,34,35
 521 916 521 916 514 909 c 2,36,-1
 439 834 l 2,18,19
86 481 m 2,37,38
 79 474 79 474 72 481 c 2,39,-1
 47 506 l 2,40,41
 44 509 44 509 44 513 c 2,42,-1
 44 916 l 2,43,44
 44 923 44 923 49 925.5 c 128,-1,45
 54 928 54 928 59 923 c 2,46,-1
 161 822 l 2,47,48
 164 819 164 819 164 815 c 2,49,-1
 164 564 l 2,50,51
 164 560 164 560 161 557 c 2,52,-1
 86 481 l 2,37,38
502 481 m 2,53,54
 509 474 509 474 502 468 c 2,55,-1
 451 418 l 2,56,57
 448 415 448 415 444 415 c 2,58,-1
 167 415 l 2,59,60
 163 415 163 415 160 418 c 2,61,-1
 109 468 l 2,62,63
 102 475 102 475 109 481 c 2,64,-1
 160 532 l 2,65,66
 163 535 163 535 167 535 c 2,67,-1
 444 535 l 2,68,69
 448 535 448 535 451 532 c 2,70,-1
 502 481 l 2,53,54
59 3 m 2,71,72
 53 -3 53 -3 48.5 0 c 128,-1,73
 44 3 44 3 44 10 c 2,74,-1
 44 437 l 2,75,76
 44 441 44 441 47 444 c 2,77,-1
 72 469 l 2,78,79
 79 476 79 476 86 469 c 2,80,-1
 161 393 l 2,81,82
 164 390 164 390 164 386 c 2,83,-1
 164 109 l 2,84,85
 164 103 164 103 161 103 c 2,86,-1
 59 3 l 2,71,72
EndSplineSet
Validated: 1
EndChar

StartChar: Q
Encoding: 81 81 16
Width: 616
VWidth: 1379
GlyphClass: 1
Flags: W
LayerCount: 2
Fore
SplineSet
450 17 m 2,0,1
 456 11 456 11 453 5.5 c 128,-1,2
 450 0 450 0 443 0 c 2,3,-1
 131 0 l 2,4,5
 127 0 127 0 124 3 c 2,6,-1
 101 29 l 2,7,8
 94 35 94 35 101 41 c 2,9,-1
 177 117 l 2,10,11
 180 120 180 120 183 120 c 2,12,-1
 342 120 l 2,13,14
 346 120 346 120 349 117 c 2,15,-1
 450 17 l 2,0,1
570 10 m 2,16,17
 570 0 570 0 560 0 c 2,18,-1
 490 0 l 2,19,20
 486 0 486 0 483 3 c 2,21,-1
 332 153 l 2,22,23
 329 156 329 156 330 160 c 2,24,-1
 330 243 l 2,25,26
 330 253 330 253 339 252 c 2,27,-1
 399 252 l 2,28,29
 403 252 403 252 406 250 c 2,30,-1
 570 86 l 1,31,-1
 570 10 l 2,16,17
451 225 m 1,32,-1
 451 388 l 2,33,34
 451 392 451 392 454 394 c 2,35,-1
 528 470 l 2,36,37
 534 476 534 476 541 470 c 2,38,-1
 567 446 l 2,39,40
 570 443 570 443 570 439 c 2,41,-1
 570 127 l 2,42,43
 570 120 570 120 564.5 117 c 128,-1,44
 559 114 559 114 553 120 c 2,45,-1
 451 225 l 1,32,-1
541 481 m 2,46,47
 534 474 534 474 528 481 c 2,48,-1
 454 557 l 2,49,50
 451 560 451 560 451 564 c 2,51,-1
 451 817 l 2,52,53
 451 821 451 821 454 823 c 2,54,-1
 528 899 l 2,55,56
 534 905 534 905 541 899 c 2,57,-1
 567 873 l 2,58,59
 570 870 570 870 570 866 c 2,60,-1
 570 514 l 2,61,62
 570 510 570 510 567 508 c 2,63,-1
 541 481 l 2,46,47
441 834 m 2,64,65
 438 831 438 831 434 832 c 2,66,-1
 183 832 l 2,67,68
 179 832 179 832 177 834 c 2,69,-1
 101 910 l 2,70,71
 94 917 94 917 101 924 c 2,72,-1
 124 949 l 2,73,74
 127 952 127 952 131 952 c 2,75,-1
 484 952 l 2,76,77
 488 952 488 952 491 949 c 2,78,-1
 517 924 l 2,79,80
 524 917 524 917 517 910 c 2,81,-1
 441 834 l 2,64,65
88 481 m 2,82,83
 81 474 81 474 74 481 c 2,84,-1
 51 508 l 2,85,86
 48 511 48 511 48 514 c 2,87,-1
 48 866 l 2,88,89
 48 870 48 870 51 873 c 2,90,-1
 74 899 l 2,91,92
 81 906 81 906 88 899 c 2,93,-1
 164 823 l 2,94,95
 167 820 167 820 167 817 c 2,96,-1
 167 564 l 2,97,98
 167 560 167 560 164 557 c 2,99,-1
 88 481 l 2,82,83
88 54 m 2,100,101
 81 47 81 47 74 54 c 2,102,-1
 51 79 l 2,103,104
 48 82 48 82 48 86 c 2,105,-1
 48 439 l 2,106,107
 48 443 48 443 51 446 c 2,108,-1
 74 470 l 2,109,110
 81 477 81 477 88 470 c 2,111,-1
 164 394 l 2,112,113
 167 391 167 391 167 388 c 2,114,-1
 167 137 l 2,115,116
 167 133 167 133 164 130 c 2,117,-1
 88 54 l 2,100,101
EndSplineSet
Validated: 1
EndChar

StartChar: R
Encoding: 82 82 17
Width: 616
VWidth: 1379
GlyphClass: 1
Flags: W
LayerCount: 2
Fore
SplineSet
568 10 m 2,0,1
 568 0 568 0 559 0 c 2,2,-1
 487 0 l 2,3,4
 483 0 483 0 480 3 c 2,5,-1
 185 301 l 2,6,7
 182 304 182 304 182 308 c 2,8,-1
 182 390 l 2,9,10
 182 400 182 400 190 400 c 2,11,-1
 251 400 l 2,12,13
 255 400 255 400 258 397 c 2,14,-1
 566 88 l 2,15,16
 569 85 569 85 568 81 c 2,17,-1
 568 10 l 2,0,1
62 3 m 2,18,19
 56 -3 56 -3 51.5 0 c 128,-1,20
 47 3 47 3 47 10 c 2,21,-1
 47 439 l 2,22,23
 47 443 47 443 50 446 c 2,24,-1
 73 470 l 2,25,26
 80 477 80 477 87 470 c 2,27,-1
 163 394 l 2,28,29
 166 391 166 391 166 388 c 2,30,-1
 166 110 l 2,31,32
 166 106 166 106 163 103 c 2,33,-1
 62 3 l 2,18,19
440 834 m 2,34,35
 437 831 437 831 433 832 c 2,36,-1
 182 832 l 2,37,38
 178 832 178 832 175 834 c 2,39,-1
 73 935 l 2,40,41
 67 941 67 941 70 946.5 c 128,-1,42
 73 952 73 952 80 952 c 2,43,-1
 483 952 l 2,44,45
 487 952 487 952 490 949 c 2,46,-1
 516 924 l 2,47,48
 523 917 523 917 516 910 c 2,49,-1
 440 834 l 2,34,35
541 481 m 2,50,51
 534 474 534 474 528 481 c 2,52,-1
 452 557 l 2,53,54
 449 560 449 560 450 564 c 2,55,-1
 450 815 l 2,56,57
 450 819 450 819 452 822 c 2,58,-1
 528 898 l 2,59,60
 534 904 534 904 541 898 c 2,61,-1
 566 873 l 2,62,63
 569 870 569 870 568 866 c 2,64,-1
 568 510 l 1,65,-1
 541 481 l 2,50,51
503 483 m 2,66,67
 510 476 510 476 503 469 c 2,68,-1
 454 419 l 2,69,70
 451 416 451 416 447 417 c 2,71,-1
 168 417 l 2,72,73
 164 417 164 417 161 419 c 2,74,-1
 112 469 l 2,75,76
 105 476 105 476 112 483 c 2,77,-1
 161 532 l 2,78,79
 164 535 164 535 168 535 c 2,80,-1
 447 535 l 2,81,82
 451 535 451 535 454 532 c 2,83,-1
 503 483 l 2,66,67
87 481 m 2,84,85
 80 474 80 474 73 481 c 2,86,-1
 50 508 l 2,87,88
 47 511 47 511 47 514 c 2,89,-1
 47 917 l 2,90,91
 47 924 47 924 52 927 c 128,-1,92
 57 930 57 930 62 924 c 2,93,-1
 166 819 l 1,94,-1
 166 564 l 2,95,96
 166 560 166 560 163 557 c 2,97,-1
 87 481 l 2,84,85
EndSplineSet
Validated: 1
EndChar

StartChar: S
Encoding: 83 83 18
Width: 616
VWidth: 1379
GlyphClass: 1
Flags: W
LayerCount: 2
Fore
SplineSet
462 832 m 1,0,-1
 181 832 l 2,1,2
 177 832 177 832 174 834 c 2,3,-1
 98 910 l 2,4,5
 91 917 91 917 98 924 c 2,6,-1
 123 948 l 2,7,8
 126 951 126 951 130 950 c 2,9,-1
 559 950 l 2,10,11
 566 950 566 950 568.5 944.5 c 128,-1,12
 571 939 571 939 566 934 c 2,13,-1
 462 832 l 1,0,-1
87 481 m 2,14,15
 80 474 80 474 73 481 c 2,16,-1
 48 508 l 2,17,18
 45 511 45 511 46 514 c 2,19,-1
 46 866 l 2,20,21
 46 870 46 870 48 873 c 2,22,-1
 73 898 l 2,23,24
 80 905 80 905 87 898 c 2,25,-1
 161 822 l 2,26,27
 164 819 164 819 164 815 c 2,28,-1
 164 564 l 2,29,30
 164 560 164 560 161 557 c 2,31,-1
 87 481 l 2,14,15
452 418 m 2,32,33
 449 415 449 415 446 415 c 2,34,-1
 167 415 l 2,35,36
 163 415 163 415 160 418 c 2,37,-1
 110 469 l 2,38,39
 103 476 103 476 110 483 c 2,40,-1
 160 532 l 2,41,42
 163 535 163 535 167 535 c 2,43,-1
 446 535 l 2,44,45
 450 535 450 535 452 532 c 2,46,-1
 502 483 l 2,47,48
 509 476 509 476 502 469 c 2,49,-1
 452 418 l 2,32,33
539 52 m 2,50,51
 532 45 532 45 527 52 c 2,52,-1
 451 128 l 2,53,54
 448 131 448 131 448 135 c 2,55,-1
 448 386 l 2,56,57
 448 390 448 390 451 393 c 2,58,-1
 527 469 l 2,59,60
 533 475 533 475 539 469 c 2,61,-1
 566 446 l 2,62,63
 569 443 569 443 568 439 c 2,64,-1
 568 86 l 2,65,66
 568 82 568 82 566 79 c 2,67,-1
 539 52 l 2,50,51
490 3 m 2,68,69
 487 0 487 0 483 0 c 2,70,-1
 54 0 l 2,71,72
 47 0 47 0 45 5.5 c 128,-1,73
 43 11 43 11 48 17 c 2,74,-1
 148 116 l 2,75,76
 151 119 151 119 154 119 c 2,77,-1
 182 120 l 1,78,-1
 432 120 l 2,79,80
 436 120 436 120 439 117 c 2,81,-1
 514 41 l 2,82,83
 520 34 520 34 514 29 c 2,84,-1
 490 3 l 2,68,69
EndSplineSet
Validated: 1
EndChar

StartChar: T
Encoding: 84 84 19
Width: 616
VWidth: 1379
GlyphClass: 1
Flags: W
LayerCount: 2
Fore
SplineSet
328 3 m 2,0,1
 321 -4 321 -4 316 3 c 2,2,-1
 240 79 l 2,3,4
 237 82 237 82 237 86 c 2,5,-1
 237 386 l 2,6,7
 237 390 237 390 240 393 c 2,8,-1
 316 469 l 2,9,10
 322 475 322 475 328 469 c 2,11,-1
 354 446 l 2,12,13
 357 443 357 443 357 439 c 2,14,-1
 357 34 l 2,15,16
 356 33 356 33 356 32 c 0,17,18
 355 29 355 29 354 29 c 1,19,-1
 328 3 l 2,0,1
328 481 m 2,20,21
 321 474 321 474 316 481 c 2,22,-1
 240 557 l 2,23,24
 237 560 237 560 237 564 c 2,25,-1
 237 808 l 2,26,27
 237 818 237 818 247 818 c 2,28,-1
 348 818 l 2,29,30
 358 818 358 818 357 808 c 2,31,-1
 357 514 l 2,32,33
 357 510 357 510 354 508 c 2,34,-1
 328 481 l 2,20,21
575 924 m 2,35,36
 582 917 582 917 575 910 c 2,37,-1
 499 834 l 2,38,39
 496 831 496 831 492 832 c 2,40,-1
 103 832 l 2,41,42
 99 832 99 832 97 834 c 2,43,-1
 21 910 l 2,44,45
 14 917 14 917 21 924 c 2,46,-1
 46 948 l 2,47,48
 49 951 49 951 51 950 c 2,49,-1
 546 950 l 1,50,-1
 575 924 l 2,35,36
EndSplineSet
Validated: 1
EndChar

StartChar: U
Encoding: 85 85 20
Width: 616
VWidth: 1379
GlyphClass: 1
Flags: W
LayerCount: 2
Fore
SplineSet
77 0 m 2,0,1
 70 0 70 0 67.5 5.5 c 128,-1,2
 65 11 65 11 70 17 c 2,3,-1
 171 116 l 2,4,5
 174 119 174 119 178 119 c 2,6,-1
 430 119 l 2,7,8
 434 119 434 119 437 116 c 2,9,-1
 537 17 l 2,10,11
 543 11 543 11 540.5 5.5 c 128,-1,12
 538 0 538 0 531 0 c 2,13,-1
 77 0 l 2,0,1
566 34 m 2,14,15
 566 27 566 27 560 25 c 128,-1,16
 554 23 554 23 549 29 c 2,17,-1
 448 128 l 2,18,19
 445 131 445 131 446 135 c 2,20,-1
 446 386 l 2,21,22
 446 390 446 390 448 393 c 2,23,-1
 524 469 l 2,24,25
 530 475 530 475 537 469 c 2,26,-1
 563 446 l 2,27,28
 566 443 566 443 566 439 c 2,29,-1
 566 34 l 2,14,15
537 481 m 2,30,31
 530 474 530 474 524 481 c 2,32,-1
 448 557 l 2,33,34
 445 560 445 560 446 564 c 2,35,-1
 446 841 l 2,36,37
 446 845 446 845 448 848 c 2,38,-1
 549 948 l 2,39,40
 555 954 555 954 560.5 951 c 128,-1,41
 566 948 566 948 566 941 c 2,42,-1
 566 514 l 2,43,44
 566 510 566 510 563 508 c 2,45,-1
 537 481 l 2,30,31
84 481 m 2,46,47
 77 474 77 474 70 481 c 2,48,-1
 46 508 l 2,49,50
 43 511 43 511 43 514 c 2,51,-1
 43 941 l 2,52,53
 43 948 43 948 47.5 950.5 c 128,-1,54
 52 953 52 953 58 948 c 2,55,-1
 160 848 l 2,56,57
 163 845 163 845 163 841 c 2,58,-1
 163 564 l 2,59,60
 163 560 163 560 160 557 c 2,61,-1
 84 481 l 2,46,47
163 135 m 2,62,63
 163 131 163 131 160 128 c 2,64,-1
 58 29 l 2,65,66
 52 23 52 23 47.5 25.5 c 128,-1,67
 43 28 43 28 43 34 c 2,68,-1
 43 439 l 2,69,70
 43 443 43 443 46 446 c 2,71,-1
 70 469 l 2,72,73
 77 476 77 476 84 469 c 2,74,-1
 160 393 l 2,75,76
 163 390 163 390 163 386 c 2,77,-1
 163 135 l 2,62,63
EndSplineSet
Validated: 1
EndChar

StartChar: V
Encoding: 86 86 21
Width: 616
VWidth: 1379
GlyphClass: 1
Flags: W
LayerCount: 2
Fore
SplineSet
559 437 m 2,0,1
 559 431 559 431 557 430 c 0,2,3
 506 324 506 324 456.5 218.5 c 128,-1,4
 407 113 407 113 359 6 c 0,5,6
 356 0 356 0 350 0 c 2,7,-1
 320 0 l 2,8,9
 310 0 310 0 310 10 c 2,10,-1
 310 181 l 2,11,12
 310 184 310 184 318 201 c 128,-1,13
 326 218 326 218 337 243.5 c 128,-1,14
 348 269 348 269 362.5 298.5 c 128,-1,15
 377 328 377 328 390 356 c 2,16,-1
 428 436 l 2,17,18
 428 442 428 442 433 441 c 2,19,-1
 534 477 l 2,20,21
 544 480 544 480 546 470 c 2,22,-1
 559 437 l 2,0,1
537 481 m 2,23,24
 530 474 530 474 524 481 c 2,25,-1
 448 557 l 2,26,27
 445 560 445 560 446 564 c 2,28,-1
 446 846 l 1,29,-1
 548 949 l 2,30,31
 554 955 554 955 559 952 c 128,-1,32
 564 949 564 949 564 942 c 2,33,-1
 564 510 l 1,34,-1
 537 481 l 2,23,24
83 481 m 2,35,36
 76 474 76 474 69 481 c 2,37,-1
 46 508 l 2,38,39
 43 511 43 511 43 514 c 2,40,-1
 43 942 l 2,41,42
 43 949 43 949 47.5 951.5 c 128,-1,43
 52 954 52 954 58 949 c 2,44,-1
 161 846 l 1,45,-1
 161 564 l 2,46,47
 161 560 161 560 159 557 c 2,48,-1
 83 481 l 2,35,36
297 10 m 2,49,50
 297 0 297 0 287 0 c 2,51,-1
 257 0 l 2,52,53
 251 0 251 0 248 6 c 2,54,-1
 50 430 l 1,55,-1
 50 437 l 1,56,-1
 61 470 l 2,57,58
 64 480 64 480 73 477 c 2,59,-1
 177 440 l 1,60,-1
 217 356 l 2,61,62
 229 330 229 330 243.5 300 c 128,-1,63
 258 270 258 270 269.5 244 c 128,-1,64
 281 218 281 218 289 200 c 128,-1,65
 297 182 297 182 297 181 c 2,66,-1
 297 10 l 2,49,50
EndSplineSet
Validated: 1
EndChar

StartChar: W
Encoding: 87 87 22
Width: 616
VWidth: 1379
GlyphClass: 1
Flags: W
LayerCount: 2
Fore
SplineSet
539 481 m 2,0,1
 532 474 532 474 526 481 c 2,2,-1
 450 557 l 2,3,4
 447 560 447 560 447 564 c 2,5,-1
 447 841 l 2,6,7
 447 845 447 845 450 848 c 2,8,-1
 550 949 l 2,9,10
 556 955 556 955 561.5 952 c 128,-1,11
 567 949 567 949 567 942 c 2,12,-1
 567 514 l 2,13,14
 567 510 567 510 564 508 c 2,15,-1
 539 481 l 2,0,1
567 34 m 2,16,17
 567 27 567 27 561.5 25 c 128,-1,18
 556 23 556 23 550 29 c 2,19,-1
 450 130 l 2,20,21
 447 133 447 133 447 137 c 2,22,-1
 447 388 l 2,23,24
 447 392 447 392 450 394 c 2,25,-1
 526 470 l 2,26,27
 533 477 533 477 539 470 c 2,28,-1
 564 446 l 2,29,30
 567 443 567 443 567 439 c 2,31,-1
 567 34 l 2,16,17
76 0 m 2,32,33
 68 0 68 0 66 6 c 0,34,35
 65 13 65 13 69 17 c 2,36,-1
 171 117 l 2,37,38
 174 120 174 120 178 120 c 2,39,-1
 430 120 l 2,40,41
 436 120 436 120 439 117 c 2,42,-1
 539 17 l 2,43,44
 545 11 545 11 542 5.5 c 128,-1,45
 539 0 539 0 532 0 c 2,46,-1
 76 0 l 2,32,33
259 137 m 2,47,48
 249 137 249 137 250 146 c 2,49,-1
 250 439 l 2,50,51
 250 443 250 443 252 446 c 2,52,-1
 303 495 l 2,53,54
 309 501 309 501 316 495 c 2,55,-1
 367 446 l 2,56,57
 370 443 370 443 370 439 c 2,58,-1
 370 146 l 2,59,60
 370 136 370 136 360 137 c 2,61,-1
 259 137 l 2,47,48
83 481 m 2,62,63
 76 474 76 474 69 481 c 2,64,-1
 44 508 l 2,65,66
 41 511 41 511 41 514 c 2,67,-1
 41 942 l 2,68,69
 41 949 41 949 46.5 951.5 c 128,-1,70
 52 954 52 954 58 949 c 2,71,-1
 159 848 l 2,72,73
 162 845 162 845 161 841 c 2,74,-1
 161 564 l 2,75,76
 161 560 161 560 159 557 c 2,77,-1
 83 481 l 2,62,63
161 137 m 2,78,79
 161 133 161 133 159 130 c 2,80,-1
 58 29 l 2,81,82
 52 23 52 23 46.5 25.5 c 128,-1,83
 41 28 41 28 41 34 c 2,84,-1
 41 439 l 2,85,86
 41 443 41 443 44 446 c 2,87,-1
 69 470 l 2,88,89
 76 477 76 477 83 470 c 2,90,-1
 159 394 l 2,91,92
 162 391 162 391 161 388 c 2,93,-1
 161 137 l 2,78,79
EndSplineSet
Validated: 1
EndChar

StartChar: X
Encoding: 88 88 23
Width: 616
VWidth: 1379
GlyphClass: 1
Flags: W
LayerCount: 2
Fore
SplineSet
567 40 m 1,0,-1
 552 7 l 2,1,2
 549 0 549 0 543 0 c 2,3,-1
 462 0 l 2,4,5
 456 0 456 0 454 6 c 256,6,7
 451 12 451 12 440.5 37 c 128,-1,8
 430 62 430 62 415 97 c 128,-1,9
 400 132 400 132 383.5 172 c 128,-1,10
 367 212 367 212 352.5 246 c 128,-1,11
 338 280 338 280 326 310.5 c 128,-1,12
 314 341 314 341 314 341 c 1,13,-1
 314 459 l 2,14,15
 314 469 314 469 324 469 c 2,16,-1
 382 469 l 2,17,18
 388 469 388 469 390 463 c 2,19,-1
 567 40 l 1,0,-1
301 341 m 1,20,21
 301 341 301 341 287.5 310.5 c 128,-1,22
 274 280 274 280 260 246 c 128,-1,23
 246 212 246 212 229 172 c 128,-1,24
 212 132 212 132 197 97 c 128,-1,25
 182 62 182 62 171.5 36.5 c 128,-1,26
 161 11 161 11 159 6 c 256,27,28
 156 0 156 0 150 0 c 2,29,-1
 69 0 l 2,30,31
 62 0 62 0 59 7 c 2,32,-1
 46 40 l 1,33,-1
 222 463 l 2,34,35
 225 469 225 469 230 469 c 2,36,-1
 291 469 l 2,37,38
 301 469 301 469 301 459 c 2,39,-1
 301 341 l 1,20,21
301 492 m 2,40,41
 301 482 301 482 291 483 c 2,42,-1
 230 483 l 2,43,44
 224 483 224 483 222 488 c 2,45,-1
 46 910 l 1,46,-1
 59 943 l 2,47,48
 62 950 62 950 69 950 c 2,49,-1
 150 950 l 2,50,51
 156 950 156 950 159 945 c 256,52,53
 162 939 162 939 172 913.5 c 128,-1,54
 182 888 182 888 197 853 c 128,-1,55
 212 818 212 818 229 778 c 128,-1,56
 246 738 246 738 260 705 c 128,-1,57
 274 672 274 672 287.5 641.5 c 128,-1,58
 301 611 301 611 301 611 c 1,59,-1
 301 492 l 2,40,41
567 910 m 1,60,-1
 390 488 l 2,61,62
 387 482 387 482 382 483 c 2,63,-1
 324 483 l 2,64,65
 314 483 314 483 314 492 c 2,66,-1
 314 611 l 1,67,68
 314 611 314 611 326 641.5 c 128,-1,69
 338 672 338 672 352.5 705 c 128,-1,70
 367 738 367 738 383.5 778 c 128,-1,71
 400 818 400 818 415 853 c 128,-1,72
 430 888 430 888 440.5 913.5 c 128,-1,73
 451 939 451 939 454 945 c 256,74,75
 457 951 457 951 462 950 c 2,76,-1
 543 950 l 2,77,78
 547 950 547 950 550 945 c 2,79,-1
 567 910 l 1,60,-1
EndSplineSet
Validated: 1
EndChar

StartChar: Y
Encoding: 89 89 24
Width: 616
VWidth: 1379
GlyphClass: 1
Flags: W
LayerCount: 2
Fore
SplineSet
538 481 m 2,0,1
 531 474 531 474 526 481 c 2,2,-1
 450 557 l 2,3,4
 447 560 447 560 447 564 c 2,5,-1
 447 840 l 2,6,7
 447 844 447 844 450 847 c 2,8,-1
 550 948 l 2,9,10
 556 954 556 954 561.5 951 c 128,-1,11
 567 948 567 948 567 941 c 2,12,-1
 567 513 l 2,13,14
 567 509 567 509 564 506 c 2,15,-1
 538 481 l 2,0,1
538 52 m 2,16,17
 531 45 531 45 526 52 c 2,18,-1
 450 128 l 2,19,20
 447 131 447 131 447 135 c 2,21,-1
 447 386 l 2,22,23
 447 390 447 390 450 393 c 2,24,-1
 526 469 l 2,25,26
 532 475 532 475 538 469 c 2,27,-1
 564 444 l 2,28,29
 567 441 567 441 567 437 c 2,30,-1
 567 86 l 2,31,32
 567 82 567 82 564 79 c 2,33,-1
 538 52 l 2,16,17
488 3 m 2,34,35
 485 0 485 0 481 0 c 2,36,-1
 52 0 l 2,37,38
 45 0 45 0 43 5.5 c 128,-1,39
 41 11 41 11 47 17 c 2,40,-1
 150 119 l 1,41,-1
 432 119 l 2,42,43
 436 119 436 119 439 116 c 2,44,-1
 514 40 l 2,45,46
 520 33 520 33 514 28 c 2,47,-1
 488 3 l 2,34,35
451 418 m 2,48,49
 448 415 448 415 444 415 c 2,50,-1
 166 415 l 2,51,52
 162 415 162 415 159 418 c 2,53,-1
 109 468 l 2,54,55
 102 475 102 475 109 481 c 2,56,-1
 159 532 l 2,57,58
 162 535 162 535 166 535 c 2,59,-1
 444 535 l 2,60,61
 448 535 448 535 451 532 c 2,62,-1
 501 481 l 2,63,64
 508 474 508 474 501 468 c 2,65,-1
 451 418 l 2,48,49
84 481 m 2,66,67
 77 474 77 474 70 481 c 2,68,-1
 47 506 l 2,69,70
 44 509 44 509 44 513 c 2,71,-1
 44 941 l 2,72,73
 44 948 44 948 49 950.5 c 128,-1,74
 54 953 54 953 59 948 c 2,75,-1
 163 844 l 1,76,-1
 163 564 l 2,77,78
 163 560 163 560 160 557 c 2,79,-1
 84 481 l 2,66,67
EndSplineSet
Validated: 1
EndChar

StartChar: Z
Encoding: 90 90 25
Width: 616
VWidth: 1379
GlyphClass: 1
Flags: W
LayerCount: 2
Fore
SplineSet
563 40 m 2,0,1
 569 33 569 33 563 28 c 2,2,-1
 538 3 l 2,3,4
 535 0 535 0 531 0 c 2,5,-1
 99 0 l 2,6,7
 95 0 95 0 92 3 c 2,8,-1
 52 43 l 2,9,10
 48 47 48 47 51 54 c 2,11,-1
 77 113 l 2,12,13
 80 119 80 119 86 119 c 2,14,-1
 480 119 l 2,15,16
 484 119 484 119 487 116 c 2,17,-1
 563 40 l 2,0,1
339 408 m 2,18,19
 339 407 339 407 338.5 404 c 128,-1,20
 338 401 338 401 338 400 c 2,21,-1
 219 139 l 2,22,23
 216 133 216 133 211 134 c 2,24,-1
 101 134 l 2,25,26
 87 134 87 134 92 148 c 2,27,-1
 226 441 l 1,28,-1
 273 469 l 1,29,-1
 308 469 l 2,30,31
 314 469 314 469 316 463 c 2,32,-1
 339 408 l 2,18,19
488 726 m 2,33,34
 467 676 467 676 443 623.5 c 128,-1,35
 419 571 419 571 400 535 c 1,36,-1
 400 537 l 1,37,38
 396 531 396 531 378 518.5 c 128,-1,39
 360 506 360 506 345 495 c 2,40,-1
 328 481 l 1,41,-1
 281 481 l 2,42,43
 274 481 274 481 272 488 c 2,44,-1
 261 517 l 1,45,-1
 396 811 l 2,46,47
 399 817 399 817 404 817 c 2,48,-1
 514 817 l 2,49,50
 528 817 528 817 523 803 c 2,51,-1
 488 726 l 2,33,34
538 837 m 2,52,53
 535 831 535 831 530 832 c 2,54,-1
 134 832 l 2,55,56
 131 832 131 832 128 834 c 2,57,-1
 52 910 l 2,58,59
 45 917 45 917 52 924 c 2,60,-1
 77 948 l 2,61,62
 80 951 80 951 84 950 c 2,63,-1
 514 950 l 2,64,65
 518 950 518 950 521 948 c 2,66,-1
 563 906 l 2,67,68
 567 902 567 902 564 895 c 2,69,-1
 538 837 l 2,52,53
EndSplineSet
Validated: 1
EndChar

StartChar: D
Encoding: 68 68 26
Width: 616
VWidth: 1379
GlyphClass: 1
Flags: W
LayerCount: 2
Fore
SplineSet
59 29 m 2,0,1
 53 23 53 23 48.5 25.5 c 128,-1,2
 44 28 44 28 44 34 c 2,3,-1
 44 439 l 2,4,5
 44 443 44 443 47 446 c 2,6,-1
 72 469 l 2,7,8
 79 476 79 476 86 469 c 2,9,-1
 161 393 l 2,10,11
 164 390 164 390 164 386 c 2,12,-1
 164 135 l 2,13,14
 164 131 164 131 161 128 c 2,15,-1
 59 29 l 2,0,1
488 3 m 2,16,17
 485 0 485 0 481 0 c 2,18,-1
 79 0 l 2,19,20
 72 0 72 0 69 5.5 c 128,-1,21
 66 11 66 11 72 17 c 2,22,-1
 172 116 l 2,23,24
 175 119 175 119 179 119 c 2,25,-1
 432 119 l 2,26,27
 436 119 436 119 439 116 c 2,28,-1
 513 41 l 2,29,30
 519 34 519 34 513 29 c 2,31,-1
 488 3 l 2,16,17
538 52 m 2,32,33
 531 45 531 45 526 52 c 2,34,-1
 450 128 l 2,35,36
 447 131 447 131 447 135 c 2,37,-1
 447 386 l 2,38,39
 447 390 447 390 450 393 c 2,40,-1
 526 469 l 2,41,42
 532 475 532 475 538 469 c 2,43,-1
 564 446 l 2,44,45
 567 443 567 443 567 439 c 2,46,-1
 567 86 l 2,47,48
 567 82 567 82 564 79 c 2,49,-1
 538 52 l 2,32,33
538 481 m 2,50,51
 531 474 531 474 526 481 c 2,52,-1
 450 557 l 2,53,54
 447 560 447 560 447 564 c 2,55,-1
 447 815 l 2,56,57
 447 819 447 819 450 822 c 2,58,-1
 526 898 l 2,59,60
 532 904 532 904 538 898 c 2,61,-1
 564 872 l 2,62,63
 567 869 567 869 567 865 c 2,64,-1
 567 514 l 2,65,66
 567 510 567 510 564 508 c 2,67,-1
 538 481 l 2,50,51
439 834 m 2,68,69
 436 831 436 831 432 832 c 2,70,-1
 179 832 l 2,71,72
 175 832 175 832 172 834 c 2,73,-1
 72 934 l 2,74,75
 66 940 66 940 69 945 c 128,-1,76
 72 950 72 950 79 950 c 2,77,-1
 481 950 l 2,78,79
 485 950 485 950 488 948 c 2,80,-1
 513 924 l 2,81,82
 520 917 520 917 513 910 c 2,83,-1
 439 834 l 2,68,69
86 481 m 2,84,85
 79 474 79 474 72 481 c 2,86,-1
 47 508 l 2,87,88
 44 511 44 511 44 514 c 2,89,-1
 44 917 l 2,90,91
 44 924 44 924 49 927 c 128,-1,92
 54 930 54 930 59 924 c 2,93,-1
 161 822 l 2,94,95
 164 819 164 819 164 815 c 2,96,-1
 164 564 l 2,97,98
 164 560 164 560 161 557 c 2,99,-1
 86 481 l 2,84,85
EndSplineSet
Validated: 1
EndChar

StartChar: a
Encoding: 97 97 27
Width: 616
VWidth: 1379
GlyphClass: 1
Flags: W
LayerCount: 2
Fore
SplineSet
450 103 m 2,0,1
 447 103 447 103 447 109 c 2,2,-1
 447 386 l 2,3,4
 447 390 447 390 450 393 c 2,5,-1
 526 469 l 2,6,7
 532 475 532 475 538 469 c 2,8,-1
 563 444 l 2,9,10
 566 441 566 441 566 437 c 2,11,-1
 566 10 l 2,12,13
 566 3 566 3 560 0 c 128,-1,14
 554 -3 554 -3 549 3 c 2,15,-1
 450 103 l 2,0,1
566 513 m 2,16,17
 566 509 566 509 563 506 c 2,18,-1
 538 481 l 2,19,20
 531 474 531 474 526 481 c 2,21,-1
 450 556 l 2,22,23
 447 559 447 559 447 563 c 2,24,-1
 447 815 l 2,25,26
 447 819 447 819 450 822 c 2,27,-1
 549 923 l 2,28,29
 555 929 555 929 560.5 926 c 128,-1,30
 566 923 566 923 566 916 c 2,31,-1
 566 513 l 2,16,17
437 833 m 2,32,33
 434 830 434 830 430 830 c 2,34,-1
 179 830 l 2,35,36
 175 830 175 830 172 833 c 2,37,-1
 70 934 l 2,38,39
 64 940 64 940 67 945 c 128,-1,40
 70 950 70 950 77 950 c 2,41,-1
 532 950 l 2,42,43
 539 950 539 950 541 944.5 c 128,-1,44
 543 939 543 939 538 934 c 2,45,-1
 437 833 l 2,32,33
163 563 m 2,46,47
 163 559 163 559 160 556 c 2,48,-1
 84 481 l 2,49,50
 77 474 77 474 70 481 c 2,51,-1
 47 506 l 2,52,53
 44 509 44 509 44 513 c 2,54,-1
 44 916 l 2,55,56
 44 923 44 923 49 925.5 c 128,-1,57
 54 928 54 928 59 923 c 2,58,-1
 160 822 l 2,59,60
 163 819 163 819 163 815 c 2,61,-1
 163 563 l 2,46,47
451 418 m 2,62,63
 448 415 448 415 444 415 c 2,64,-1
 166 415 l 2,65,66
 162 415 162 415 159 418 c 2,67,-1
 109 468 l 2,68,69
 102 475 102 475 109 481 c 2,70,-1
 159 532 l 2,71,72
 162 535 162 535 166 535 c 2,73,-1
 444 535 l 2,74,75
 448 535 448 535 451 532 c 2,76,-1
 501 481 l 2,77,78
 508 474 508 474 501 468 c 2,79,-1
 451 418 l 2,62,63
59 3 m 2,80,81
 53 -3 53 -3 48.5 0 c 128,-1,82
 44 3 44 3 44 10 c 2,83,-1
 44 437 l 2,84,85
 44 441 44 441 47 444 c 2,86,-1
 70 469 l 2,87,88
 77 476 77 476 84 469 c 2,89,-1
 160 393 l 2,90,91
 163 390 163 390 163 386 c 2,92,-1
 163 109 l 2,93,94
 163 103 163 103 160 103 c 2,95,-1
 59 3 l 2,80,81
EndSplineSet
Validated: 1
EndChar

StartChar: b
Encoding: 98 98 28
Width: 616
VWidth: 1379
GlyphClass: 1
Flags: W
LayerCount: 2
Fore
SplineSet
490 3 m 2,0,1
 487 0 487 0 483 0 c 2,2,-1
 80 0 l 2,3,4
 73 0 73 0 70.5 5.5 c 128,-1,5
 68 11 68 11 73 17 c 2,6,-1
 174 116 l 2,7,8
 177 119 177 119 181 119 c 2,9,-1
 433 119 l 2,10,11
 437 119 437 119 440 116 c 2,12,-1
 514 40 l 2,13,14
 520 33 520 33 514 28 c 2,15,-1
 490 3 l 2,0,1
539 52 m 2,16,17
 532 45 532 45 527 52 c 2,18,-1
 451 128 l 2,19,20
 448 131 448 131 448 135 c 2,21,-1
 448 386 l 2,22,23
 448 390 448 390 451 393 c 2,24,-1
 527 469 l 2,25,26
 533 475 533 475 539 469 c 2,27,-1
 566 444 l 2,28,29
 569 441 569 441 568 437 c 2,30,-1
 568 84 l 2,31,32
 568 80 568 80 566 77 c 2,33,-1
 539 52 l 2,16,17
539 481 m 2,34,35
 532 474 532 474 527 481 c 2,36,-1
 451 556 l 2,37,38
 448 559 448 559 448 563 c 2,39,-1
 448 815 l 2,40,41
 448 819 448 819 451 822 c 2,42,-1
 527 898 l 2,43,44
 533 904 533 904 539 898 c 2,45,-1
 566 872 l 2,46,47
 569 869 569 869 568 865 c 2,48,-1
 568 513 l 2,49,50
 568 509 568 509 566 506 c 2,51,-1
 539 481 l 2,34,35
440 833 m 2,52,53
 437 830 437 830 433 830 c 2,54,-1
 181 830 l 2,55,56
 177 830 177 830 174 833 c 2,57,-1
 148 859 l 2,58,59
 129 876 129 876 110 896 c 128,-1,60
 91 916 91 916 73 934 c 0,61,62
 69 940 69 940 71 945 c 128,-1,63
 73 950 73 950 80 950 c 2,64,-1
 483 950 l 2,65,66
 487 950 487 950 490 948 c 2,67,-1
 514 923 l 2,68,69
 521 916 521 916 514 909 c 2,70,-1
 440 833 l 2,52,53
87 481 m 2,71,72
 80 474 80 474 73 481 c 2,73,-1
 48 506 l 2,74,75
 45 509 45 509 46 513 c 2,76,-1
 46 916 l 2,77,78
 46 923 46 923 50.5 925.5 c 128,-1,79
 55 928 55 928 61 923 c 2,80,-1
 163 822 l 2,81,82
 166 819 166 819 166 815 c 2,83,-1
 166 563 l 2,84,85
 166 559 166 559 163 556 c 2,86,-1
 87 481 l 2,71,72
452 418 m 2,87,88
 449 415 449 415 446 415 c 2,89,-1
 168 415 l 2,90,91
 164 415 164 415 161 418 c 2,92,-1
 110 468 l 2,93,94
 103 475 103 475 110 481 c 2,95,-1
 161 532 l 2,96,97
 164 535 164 535 168 535 c 2,98,-1
 446 535 l 2,99,100
 450 535 450 535 452 532 c 2,101,-1
 503 481 l 2,102,103
 510 474 510 474 503 468 c 2,104,-1
 452 418 l 2,87,88
61 28 m 2,105,106
 55 22 55 22 50.5 25 c 128,-1,107
 46 28 46 28 46 34 c 2,108,-1
 46 437 l 2,109,110
 46 441 46 441 48 444 c 2,111,-1
 73 469 l 2,112,113
 80 476 80 476 87 469 c 2,114,-1
 163 393 l 2,115,116
 166 390 166 390 166 386 c 2,117,-1
 166 135 l 2,118,119
 166 131 166 131 163 128 c 2,120,-1
 61 28 l 2,105,106
EndSplineSet
Validated: 1
EndChar

StartChar: c
Encoding: 99 99 29
Width: 616
VWidth: 1379
GlyphClass: 1
Flags: W
LayerCount: 2
Fore
SplineSet
434 832 m 1,0,-1
 179 832 l 2,1,2
 175 832 175 832 172 834 c 2,3,-1
 97 910 l 2,4,5
 90 917 90 917 97 924 c 2,6,-1
 121 948 l 2,7,8
 124 951 124 951 128 950 c 2,9,-1
 531 950 l 2,10,11
 538 950 538 950 540.5 944.5 c 128,-1,12
 543 939 543 939 538 934 c 2,13,-1
 434 832 l 1,0,-1
84 481 m 2,14,15
 77 474 77 474 70 481 c 2,16,-1
 46 506 l 2,17,18
 45 507 45 507 44 513 c 2,19,-1
 44 865 l 2,20,21
 44 871 44 871 46 872 c 2,22,-1
 70 898 l 2,23,24
 77 905 77 905 84 898 c 2,25,-1
 160 822 l 2,26,27
 163 819 163 819 163 815 c 2,28,-1
 163 564 l 2,29,30
 163 560 163 560 160 557 c 2,31,-1
 84 481 l 2,14,15
538 17 m 2,32,33
 544 11 544 11 541 5.5 c 128,-1,34
 538 0 538 0 531 0 c 2,35,-1
 128 0 l 2,36,37
 124 0 124 0 121 3 c 2,38,-1
 97 28 l 2,39,40
 90 34 90 34 97 40 c 2,41,-1
 172 116 l 2,42,43
 175 119 175 119 179 119 c 2,44,-1
 430 119 l 2,45,46
 434 119 434 119 437 116 c 2,47,-1
 538 17 l 2,32,33
84 52 m 2,48,49
 77 45 77 45 70 52 c 2,50,-1
 46 79 l 2,51,52
 45 80 45 80 44 86 c 2,53,-1
 44 439 l 2,54,55
 44 445 44 445 46 446 c 2,56,-1
 70 469 l 2,57,58
 77 476 77 476 84 469 c 2,59,-1
 160 393 l 2,60,61
 163 390 163 390 163 386 c 2,62,-1
 163 135 l 2,63,64
 163 131 163 131 160 128 c 2,65,-1
 84 52 l 2,48,49
EndSplineSet
Validated: 1
EndChar

StartChar: d
Encoding: 100 100 30
Width: 616
VWidth: 1379
GlyphClass: 1
Flags: W
LayerCount: 2
Fore
SplineSet
59 29 m 2,0,1
 53 23 53 23 48.5 25.5 c 128,-1,2
 44 28 44 28 44 34 c 2,3,-1
 44 439 l 2,4,5
 44 443 44 443 47 446 c 2,6,-1
 72 469 l 2,7,8
 79 476 79 476 86 469 c 2,9,-1
 161 393 l 2,10,11
 164 390 164 390 164 386 c 2,12,-1
 164 135 l 2,13,14
 164 131 164 131 161 128 c 2,15,-1
 59 29 l 2,0,1
488 3 m 2,16,17
 485 0 485 0 481 0 c 2,18,-1
 79 0 l 2,19,20
 72 0 72 0 69 5.5 c 128,-1,21
 66 11 66 11 72 17 c 2,22,-1
 172 116 l 2,23,24
 175 119 175 119 179 119 c 2,25,-1
 432 119 l 2,26,27
 436 119 436 119 439 116 c 2,28,-1
 513 41 l 2,29,30
 519 34 519 34 513 29 c 2,31,-1
 488 3 l 2,16,17
538 52 m 2,32,33
 531 45 531 45 526 52 c 2,34,-1
 450 128 l 2,35,36
 447 131 447 131 447 135 c 2,37,-1
 447 386 l 2,38,39
 447 390 447 390 450 393 c 2,40,-1
 526 469 l 2,41,42
 532 475 532 475 538 469 c 2,43,-1
 564 446 l 2,44,45
 567 443 567 443 567 439 c 2,46,-1
 567 86 l 2,47,48
 567 82 567 82 564 79 c 2,49,-1
 538 52 l 2,32,33
538 481 m 2,50,51
 531 474 531 474 526 481 c 2,52,-1
 450 557 l 2,53,54
 447 560 447 560 447 564 c 2,55,-1
 447 815 l 2,56,57
 447 819 447 819 450 822 c 2,58,-1
 526 898 l 2,59,60
 532 904 532 904 538 898 c 2,61,-1
 564 872 l 2,62,63
 567 869 567 869 567 865 c 2,64,-1
 567 514 l 2,65,66
 567 510 567 510 564 508 c 2,67,-1
 538 481 l 2,50,51
439 834 m 2,68,69
 436 831 436 831 432 832 c 2,70,-1
 179 832 l 2,71,72
 175 832 175 832 172 834 c 2,73,-1
 72 934 l 2,74,75
 66 940 66 940 69 945 c 128,-1,76
 72 950 72 950 79 950 c 2,77,-1
 481 950 l 2,78,79
 485 950 485 950 488 948 c 2,80,-1
 513 924 l 2,81,82
 520 917 520 917 513 910 c 2,83,-1
 439 834 l 2,68,69
86 481 m 2,84,85
 79 474 79 474 72 481 c 2,86,-1
 47 508 l 2,87,88
 44 511 44 511 44 514 c 2,89,-1
 44 917 l 2,90,91
 44 924 44 924 49 927 c 128,-1,92
 54 930 54 930 59 924 c 2,93,-1
 161 822 l 2,94,95
 164 819 164 819 164 815 c 2,96,-1
 164 564 l 2,97,98
 164 560 164 560 161 557 c 2,99,-1
 86 481 l 2,84,85
EndSplineSet
Validated: 1
EndChar

StartChar: e
Encoding: 101 101 31
Width: 616
VWidth: 1379
GlyphClass: 1
Flags: W
LayerCount: 2
Fore
SplineSet
439 834 m 2,0,1
 436 831 436 831 432 832 c 2,2,-1
 181 832 l 2,3,4
 177 832 177 832 174 834 c 2,5,-1
 73 935 l 2,6,7
 67 941 67 941 70 946.5 c 128,-1,8
 73 952 73 952 80 952 c 2,9,-1
 532 952 l 2,10,11
 539 952 539 952 542 946.5 c 128,-1,12
 545 941 545 941 539 935 c 2,13,-1
 439 834 l 2,0,1
164 564 m 2,14,15
 164 560 164 560 161 557 c 2,16,-1
 87 481 l 2,17,18
 80 474 80 474 73 481 c 2,19,-1
 47 508 l 2,20,21
 44 511 44 511 44 514 c 2,22,-1
 44 917 l 2,23,24
 44 924 44 924 49.5 927 c 128,-1,25
 55 930 55 930 61 924 c 2,26,-1
 161 823 l 2,27,28
 164 820 164 820 164 817 c 2,29,-1
 164 564 l 2,14,15
502 483 m 2,30,31
 509 476 509 476 502 469 c 2,32,-1
 452 419 l 2,33,34
 449 416 449 416 446 417 c 2,35,-1
 167 417 l 2,36,37
 163 417 163 417 160 419 c 2,38,-1
 110 469 l 2,39,40
 103 476 103 476 110 483 c 2,41,-1
 160 532 l 2,42,43
 163 535 163 535 167 535 c 2,44,-1
 446 535 l 2,45,46
 450 535 450 535 452 532 c 2,47,-1
 502 483 l 2,30,31
164 132 m 1,48,-1
 61 29 l 2,49,50
 55 23 55 23 49.5 25.5 c 128,-1,51
 44 28 44 28 44 34 c 2,52,-1
 44 439 l 2,53,54
 44 443 44 443 47 446 c 2,55,-1
 73 470 l 2,56,57
 80 477 80 477 87 470 c 2,58,-1
 161 394 l 2,59,60
 164 391 164 391 164 388 c 2,61,-1
 164 132 l 1,48,-1
80 0 m 2,62,63
 73 0 73 0 70.5 5.5 c 128,-1,64
 68 11 68 11 73 17 c 2,65,-1
 174 117 l 2,66,67
 177 120 177 120 181 120 c 2,68,-1
 432 120 l 2,69,70
 436 120 436 120 439 117 c 2,71,-1
 539 17 l 2,72,73
 545 11 545 11 542 5.5 c 128,-1,74
 539 0 539 0 532 0 c 2,75,-1
 80 0 l 2,62,63
EndSplineSet
Validated: 1
EndChar

StartChar: f
Encoding: 102 102 32
Width: 616
VWidth: 1379
GlyphClass: 1
Flags: W
LayerCount: 2
Fore
SplineSet
161 109 m 2,0,1
 161 103 161 103 159 103 c 2,2,-1
 58 3 l 2,3,4
 52 -3 52 -3 47.5 0 c 128,-1,5
 43 3 43 3 43 10 c 2,6,-1
 43 437 l 2,7,8
 43 443 43 443 44 444 c 2,9,-1
 70 469 l 2,10,11
 77 476 77 476 84 469 c 2,12,-1
 159 393 l 2,13,14
 162 390 162 390 161 386 c 2,15,-1
 161 109 l 2,0,1
450 418 m 2,16,17
 447 415 447 415 443 415 c 2,18,-1
 164 415 l 2,19,20
 160 415 160 415 157 418 c 2,21,-1
 108 468 l 2,22,23
 101 475 101 475 108 481 c 2,24,-1
 157 532 l 2,25,26
 160 535 160 535 164 535 c 2,27,-1
 443 535 l 2,28,29
 447 535 447 535 450 532 c 2,30,-1
 499 481 l 2,31,32
 506 474 506 474 499 468 c 2,33,-1
 450 418 l 2,16,17
436 833 m 2,34,35
 433 830 433 830 429 830 c 2,36,-1
 178 830 l 2,37,38
 174 830 174 830 171 833 c 2,39,-1
 70 934 l 2,40,41
 64 940 64 940 67 945 c 128,-1,42
 70 950 70 950 77 950 c 2,43,-1
 530 950 l 2,44,45
 537 950 537 950 539.5 944.5 c 128,-1,46
 542 939 542 939 537 934 c 2,47,-1
 436 833 l 2,34,35
161 563 m 2,48,49
 161 559 161 559 159 556 c 2,50,-1
 84 481 l 2,51,52
 77 474 77 474 70 481 c 2,53,-1
 44 506 l 2,54,55
 43 507 43 507 43 513 c 2,56,-1
 43 916 l 2,57,58
 43 923 43 923 47.5 925.5 c 128,-1,59
 52 928 52 928 58 923 c 2,60,-1
 159 822 l 2,61,62
 162 819 162 819 161 815 c 2,63,-1
 161 563 l 2,48,49
EndSplineSet
Validated: 1
EndChar

StartChar: g
Encoding: 103 103 33
Width: 616
VWidth: 1379
GlyphClass: 1
Flags: W
LayerCount: 2
Fore
SplineSet
490 3 m 2,0,1
 487 0 487 0 483 0 c 2,2,-1
 130 0 l 2,3,4
 126 0 126 0 123 3 c 2,5,-1
 98 29 l 2,6,7
 91 35 91 35 98 41 c 2,8,-1
 174 116 l 2,9,10
 177 119 177 119 181 119 c 2,11,-1
 432 119 l 2,12,13
 436 119 436 119 439 116 c 2,14,-1
 514 41 l 2,15,16
 520 34 520 34 514 29 c 2,17,-1
 490 3 l 2,0,1
539 52 m 2,18,19
 532 45 532 45 527 52 c 2,20,-1
 451 128 l 2,21,22
 448 131 448 131 448 135 c 2,23,-1
 448 386 l 2,24,25
 448 390 448 390 451 393 c 2,26,-1
 527 469 l 2,27,28
 533 475 533 475 539 469 c 2,29,-1
 566 446 l 2,30,31
 569 443 569 443 568 439 c 2,32,-1
 568 86 l 2,33,34
 568 82 568 82 566 79 c 2,35,-1
 539 52 l 2,18,19
465 832 m 1,36,-1
 181 832 l 2,37,38
 177 832 177 832 174 834 c 2,39,-1
 98 910 l 2,40,41
 91 917 91 917 98 924 c 2,42,-1
 123 948 l 2,43,44
 126 951 126 951 130 950 c 2,45,-1
 561 950 l 2,46,47
 568 950 568 950 571 944.5 c 128,-1,48
 574 939 574 939 568 934 c 2,49,-1
 465 832 l 1,36,-1
87 52 m 2,50,51
 80 45 80 45 73 52 c 2,52,-1
 48 79 l 2,53,54
 45 82 45 82 46 86 c 2,55,-1
 46 439 l 2,56,57
 46 443 46 443 48 446 c 2,58,-1
 73 469 l 2,59,60
 80 476 80 476 87 469 c 2,61,-1
 161 393 l 2,62,63
 164 390 164 390 164 386 c 2,64,-1
 164 135 l 2,65,66
 164 131 164 131 161 128 c 2,67,-1
 87 52 l 2,50,51
87 481 m 2,68,69
 80 474 80 474 73 481 c 2,70,-1
 48 508 l 2,71,72
 45 511 45 511 46 514 c 2,73,-1
 46 865 l 2,74,75
 46 869 46 869 48 872 c 2,76,-1
 73 898 l 2,77,78
 80 905 80 905 87 898 c 2,79,-1
 161 822 l 2,80,81
 164 819 164 819 164 815 c 2,82,-1
 164 564 l 2,83,84
 164 560 164 560 161 557 c 2,85,-1
 87 481 l 2,68,69
452 418 m 2,86,87
 449 415 449 415 446 415 c 2,88,-1
 286 415 l 2,89,90
 282 415 282 415 279 418 c 2,91,-1
 229 469 l 2,92,93
 222 476 222 476 229 483 c 2,94,-1
 279 532 l 2,95,96
 282 535 282 535 286 535 c 2,97,-1
 446 535 l 2,98,99
 450 535 450 535 452 532 c 2,100,-1
 502 483 l 2,101,102
 509 476 509 476 502 469 c 2,103,-1
 452 418 l 2,86,87
EndSplineSet
Validated: 1
EndChar

StartChar: h
Encoding: 104 104 34
Width: 616
VWidth: 1379
GlyphClass: 1
Flags: W
LayerCount: 2
Fore
SplineSet
450 106 m 1,0,-1
 450 388 l 2,1,2
 450 392 450 392 452 394 c 2,3,-1
 528 470 l 2,4,5
 534 476 534 476 541 470 c 2,6,-1
 566 446 l 2,7,8
 569 443 569 443 568 439 c 2,9,-1
 568 10 l 2,10,11
 568 3 568 3 562.5 0 c 128,-1,12
 557 -3 557 -3 552 3 c 2,13,-1
 450 106 l 1,0,-1
568 514 m 2,14,15
 568 510 568 510 566 508 c 2,16,-1
 541 481 l 2,17,18
 534 474 534 474 528 481 c 2,19,-1
 452 557 l 2,20,21
 449 560 449 560 450 564 c 2,22,-1
 450 846 l 1,23,-1
 552 949 l 2,24,25
 558 955 558 955 563 952 c 128,-1,26
 568 949 568 949 568 942 c 2,27,-1
 568 514 l 2,14,15
166 564 m 2,28,29
 166 560 166 560 163 557 c 2,30,-1
 87 481 l 2,31,32
 80 474 80 474 73 481 c 2,33,-1
 50 508 l 2,34,35
 47 511 47 511 47 514 c 2,36,-1
 47 942 l 2,37,38
 47 949 47 949 52 951.5 c 128,-1,39
 57 954 57 954 62 949 c 2,40,-1
 166 846 l 1,41,-1
 166 564 l 2,28,29
454 419 m 2,42,43
 451 416 451 416 447 417 c 2,44,-1
 168 417 l 2,45,46
 164 417 164 417 161 419 c 2,47,-1
 112 469 l 2,48,49
 105 476 105 476 112 483 c 2,50,-1
 161 532 l 2,51,52
 164 535 164 535 168 535 c 2,53,-1
 447 535 l 2,54,55
 451 535 451 535 454 532 c 2,56,-1
 503 483 l 2,57,58
 510 476 510 476 503 469 c 2,59,-1
 454 419 l 2,42,43
62 3 m 2,60,61
 56 -3 56 -3 51.5 0 c 128,-1,62
 47 3 47 3 47 10 c 2,63,-1
 47 439 l 2,64,65
 47 443 47 443 50 446 c 2,66,-1
 73 470 l 2,67,68
 80 477 80 477 87 470 c 2,69,-1
 163 394 l 2,70,71
 166 391 166 391 166 388 c 2,72,-1
 166 110 l 2,73,74
 166 106 166 106 163 103 c 2,75,-1
 62 3 l 2,60,61
EndSplineSet
Validated: 1
EndChar

StartChar: i
Encoding: 105 105 35
Width: 616
VWidth: 1379
GlyphClass: 1
Flags: W
LayerCount: 2
Fore
SplineSet
539 481 m 2,0,1
 532 474 532 474 526 481 c 2,2,-1
 450 557 l 2,3,4
 447 560 447 560 447 564 c 2,5,-1
 447 865 l 2,6,7
 447 869 447 869 450 872 c 2,8,-1
 526 948 l 2,9,10
 533 955 533 955 539 948 c 2,11,-1
 564 923 l 2,12,13
 567 920 567 920 567 916 c 2,14,-1
 567 513 l 2,15,16
 567 509 567 509 564 506 c 2,17,-1
 539 481 l 2,0,1
539 3 m 2,18,19
 532 -4 532 -4 526 3 c 2,20,-1
 450 79 l 2,21,22
 447 82 447 82 447 86 c 2,23,-1
 447 386 l 2,24,25
 447 390 447 390 450 393 c 2,26,-1
 526 469 l 2,27,28
 533 476 533 476 539 469 c 2,29,-1
 564 444 l 2,30,31
 567 441 567 441 567 437 c 2,32,-1
 567 34 l 2,33,34
 567 30 567 30 564 28 c 2,35,-1
 539 3 l 2,18,19
EndSplineSet
Validated: 1
EndChar

StartChar: j
Encoding: 106 106 36
Width: 616
VWidth: 1379
GlyphClass: 1
Flags: W
LayerCount: 2
Fore
SplineSet
539 481 m 2,0,1
 532 474 532 474 527 481 c 2,2,-1
 451 557 l 2,3,4
 448 560 448 560 448 564 c 2,5,-1
 448 841 l 2,6,7
 448 845 448 845 451 848 c 2,8,-1
 550 948 l 2,9,10
 556 954 556 954 561.5 951 c 128,-1,11
 567 948 567 948 567 941 c 2,12,-1
 567 510 l 1,13,-1
 539 481 l 2,0,1
451 128 m 2,14,15
 448 131 448 131 448 135 c 2,16,-1
 448 386 l 2,17,18
 448 390 448 390 451 393 c 2,19,-1
 527 469 l 2,20,21
 533 475 533 475 539 469 c 2,22,-1
 564 446 l 2,23,24
 567 443 567 443 567 439 c 2,25,-1
 567 34 l 2,26,27
 567 27 567 27 561.5 25 c 128,-1,28
 556 23 556 23 550 29 c 2,29,-1
 451 128 l 2,14,15
79 0 m 2,30,31
 72 0 72 0 69 5.5 c 128,-1,32
 66 11 66 11 72 17 c 2,33,-1
 174 117 l 2,34,35
 177 120 177 120 181 120 c 2,36,-1
 432 120 l 2,37,38
 436 120 436 120 439 117 c 2,39,-1
 539 17 l 2,40,41
 545 11 545 11 543 5.5 c 128,-1,42
 541 0 541 0 534 0 c 2,43,-1
 79 0 l 2,30,31
61 29 m 2,44,45
 55 23 55 23 50.5 25.5 c 128,-1,46
 46 28 46 28 46 34 c 2,47,-1
 46 379 l 2,48,49
 46 386 46 386 50.5 388 c 128,-1,50
 55 390 55 390 61 385 c 2,51,-1
 161 286 l 2,52,53
 164 283 164 283 164 279 c 2,54,-1
 164 135 l 2,55,56
 164 131 164 131 161 128 c 2,57,-1
 61 29 l 2,44,45
EndSplineSet
Validated: 1
EndChar

StartChar: k
Encoding: 107 107 37
Width: 616
VWidth: 1379
GlyphClass: 1
Flags: W
LayerCount: 2
Fore
SplineSet
567 10 m 2,0,1
 567 3 567 3 561.5 0 c 128,-1,2
 556 -3 556 -3 550 3 c 2,3,-1
 451 103 l 2,4,5
 448 103 448 103 448 109 c 2,6,-1
 448 386 l 2,7,8
 448 390 448 390 451 393 c 2,9,-1
 527 469 l 2,10,11
 533 475 533 475 539 469 c 2,12,-1
 564 444 l 2,13,14
 567 441 567 441 567 437 c 2,15,-1
 567 10 l 2,0,1
567 869 m 2,16,17
 567 865 567 865 564 862 c 2,18,-1
 257 554 l 2,19,20
 254 551 254 551 250 552 c 2,21,-1
 189 552 l 2,22,23
 181 552 181 552 181 561 c 2,24,-1
 181 646 l 2,25,26
 181 650 181 650 183 652 c 2,27,-1
 480 948 l 2,28,29
 483 951 483 951 487 950 c 2,30,-1
 557 950 l 2,31,32
 567 950 567 950 567 941 c 2,33,-1
 567 869 l 2,16,17
164 563 m 2,34,35
 164 559 164 559 161 556 c 2,36,-1
 86 481 l 2,37,38
 79 474 79 474 72 481 c 2,39,-1
 48 506 l 2,40,41
 45 509 45 509 46 513 c 2,42,-1
 46 941 l 2,43,44
 46 948 46 948 50.5 950.5 c 128,-1,45
 55 953 55 953 61 948 c 2,46,-1
 164 844 l 1,47,-1
 164 563 l 2,34,35
452 418 m 2,48,49
 449 415 449 415 446 415 c 2,50,-1
 167 415 l 2,51,52
 163 415 163 415 160 418 c 2,53,-1
 110 468 l 2,54,55
 103 475 103 475 110 481 c 2,56,-1
 160 532 l 2,57,58
 163 535 163 535 167 535 c 2,59,-1
 446 535 l 2,60,61
 450 535 450 535 452 532 c 2,62,-1
 502 481 l 2,63,64
 509 474 509 474 502 468 c 2,65,-1
 452 418 l 2,48,49
164 109 m 2,66,67
 164 103 164 103 161 103 c 2,68,-1
 61 3 l 2,69,70
 55 -3 55 -3 50.5 0 c 128,-1,71
 46 3 46 3 46 10 c 2,72,-1
 46 437 l 2,73,74
 46 441 46 441 48 444 c 2,75,-1
 72 469 l 2,76,77
 79 476 79 476 86 469 c 2,78,-1
 161 393 l 2,79,80
 164 390 164 390 164 386 c 2,81,-1
 164 109 l 2,66,67
EndSplineSet
Validated: 1
EndChar

StartChar: l
Encoding: 108 108 38
Width: 562
VWidth: 1379
GlyphClass: 1
Flags: W
LayerCount: 2
Fore
SplineSet
87 481 m 2,0,1
 80 474 80 474 73 481 c 2,2,-1
 47 508 l 2,3,4
 44 511 44 511 44 514 c 2,5,-1
 44 942 l 2,6,7
 44 949 44 949 49.5 951.5 c 128,-1,8
 55 954 55 954 61 949 c 2,9,-1
 164 846 l 1,10,-1
 164 564 l 2,11,12
 164 560 164 560 161 557 c 2,13,-1
 87 481 l 2,0,1
80 0 m 2,14,15
 73 0 73 0 70.5 5.5 c 128,-1,16
 68 11 68 11 73 17 c 2,17,-1
 174 117 l 2,18,19
 177 120 177 120 181 120 c 2,20,-1
 432 120 l 2,21,22
 436 120 436 120 439 117 c 2,23,-1
 539 17 l 2,24,25
 545 11 545 11 542 5.5 c 128,-1,26
 539 0 539 0 532 0 c 2,27,-1
 80 0 l 2,14,15
61 29 m 2,28,29
 55 23 55 23 49.5 25.5 c 128,-1,30
 44 28 44 28 44 34 c 2,31,-1
 44 439 l 2,32,33
 44 443 44 443 47 446 c 2,34,-1
 73 470 l 2,35,36
 80 477 80 477 87 470 c 2,37,-1
 161 394 l 2,38,39
 164 391 164 391 164 388 c 2,40,-1
 164 137 l 2,41,42
 164 133 164 133 161 130 c 2,43,-1
 61 29 l 2,28,29
EndSplineSet
Validated: 1
EndChar

StartChar: m
Encoding: 109 109 39
Width: 616
VWidth: 1379
GlyphClass: 1
Flags: W
LayerCount: 2
Fore
SplineSet
450 103 m 2,0,1
 447 106 447 106 447 110 c 2,2,-1
 447 388 l 2,3,4
 447 392 447 392 450 394 c 2,5,-1
 526 470 l 2,6,7
 533 477 533 477 539 470 c 2,8,-1
 564 446 l 2,9,10
 567 443 567 443 567 439 c 2,11,-1
 567 10 l 2,12,13
 567 3 567 3 561.5 0 c 128,-1,14
 556 -3 556 -3 550 3 c 2,15,-1
 450 103 l 2,0,1
567 514 m 2,16,17
 567 510 567 510 564 508 c 2,18,-1
 539 481 l 2,19,20
 532 474 532 474 526 481 c 2,21,-1
 450 557 l 2,22,23
 447 560 447 560 447 564 c 2,24,-1
 447 815 l 2,25,26
 447 819 447 819 450 822 c 2,27,-1
 550 924 l 2,28,29
 556 930 556 930 561.5 927 c 128,-1,30
 567 924 567 924 567 917 c 2,31,-1
 567 514 l 2,16,17
310 457 m 2,32,33
 303 450 303 450 297 457 c 2,34,-1
 246 508 l 2,35,36
 243 511 243 511 243 514 c 2,37,-1
 243 806 l 2,38,39
 243 816 243 816 252 815 c 2,40,-1
 354 815 l 2,41,42
 364 815 364 815 364 806 c 2,43,-1
 364 514 l 2,44,45
 364 510 364 510 361 508 c 2,46,-1
 310 457 l 2,32,33
439 834 m 2,47,48
 436 831 436 831 432 832 c 2,49,-1
 177 832 l 2,50,51
 173 832 173 832 170 834 c 2,52,-1
 68 935 l 2,53,54
 64 939 64 939 66 946 c 0,55,56
 67 952 67 952 74 952 c 2,57,-1
 532 952 l 2,58,59
 539 952 539 952 542 946.5 c 128,-1,60
 545 941 545 941 539 935 c 2,61,-1
 439 834 l 2,47,48
160 564 m 2,62,63
 160 560 160 560 157 557 c 2,64,-1
 81 481 l 2,65,66
 74 474 74 474 68 481 c 2,67,-1
 43 508 l 2,68,69
 40 511 40 511 40 514 c 2,70,-1
 40 917 l 2,71,72
 40 924 40 924 45.5 927 c 128,-1,73
 51 930 51 930 57 924 c 2,74,-1
 157 822 l 2,75,76
 160 819 160 819 160 815 c 2,77,-1
 160 564 l 2,62,63
57 3 m 2,78,79
 51 -3 51 -3 45.5 0 c 128,-1,80
 40 3 40 3 40 10 c 2,81,-1
 40 439 l 2,82,83
 40 443 40 443 43 446 c 2,84,-1
 68 470 l 2,85,86
 75 477 75 477 81 470 c 2,87,-1
 157 394 l 2,88,89
 160 391 160 391 160 388 c 2,90,-1
 160 110 l 2,91,92
 160 106 160 106 157 103 c 2,93,-1
 57 3 l 2,78,79
EndSplineSet
Validated: 1
EndChar

StartChar: n
Encoding: 110 110 40
Width: 616
VWidth: 1379
GlyphClass: 1
Flags: W
LayerCount: 2
Fore
SplineSet
541 3 m 2,0,1
 534 -4 534 -4 528 3 c 2,2,-1
 452 79 l 2,3,4
 449 82 449 82 450 86 c 2,5,-1
 450 386 l 2,6,7
 450 390 450 390 452 393 c 2,8,-1
 528 469 l 2,9,10
 534 475 534 475 541 469 c 2,11,-1
 566 444 l 2,12,13
 569 441 569 441 568 437 c 2,14,-1
 568 34 l 2,15,16
 568 30 568 30 566 28 c 2,17,-1
 541 3 l 2,0,1
541 481 m 2,18,19
 534 474 534 474 528 481 c 2,20,-1
 452 557 l 2,21,22
 449 560 449 560 450 564 c 2,23,-1
 450 865 l 2,24,25
 450 869 450 869 452 872 c 2,26,-1
 528 948 l 2,27,28
 534 954 534 954 541 948 c 2,29,-1
 566 923 l 2,30,31
 569 920 569 920 568 916 c 2,32,-1
 568 513 l 2,33,34
 568 509 568 509 566 506 c 2,35,-1
 541 481 l 2,18,19
433 564 m 2,36,37
 433 554 433 554 423 554 c 2,38,-1
 382 554 l 1,39,-1
 185 750 l 2,40,41
 182 753 182 753 182 757 c 2,42,-1
 182 865 l 2,43,44
 182 875 182 875 190 874 c 2,45,-1
 226 874 l 2,46,47
 230 874 230 874 233 872 c 2,48,-1
 430 674 l 2,49,50
 433 671 433 671 433 668 c 2,51,-1
 433 564 l 2,36,37
87 481 m 2,52,53
 80 474 80 474 73 481 c 2,54,-1
 50 506 l 2,55,56
 47 509 47 509 47 513 c 2,57,-1
 47 916 l 2,58,59
 47 920 47 920 50 923 c 2,60,-1
 73 948 l 2,61,62
 80 955 80 955 87 948 c 2,63,-1
 163 872 l 2,64,65
 166 869 166 869 166 865 c 2,66,-1
 166 564 l 2,67,68
 166 560 166 560 163 557 c 2,69,-1
 87 481 l 2,52,53
87 3 m 2,70,71
 80 -4 80 -4 73 3 c 2,72,-1
 50 28 l 2,73,74
 47 31 47 31 47 34 c 2,75,-1
 47 437 l 2,76,77
 47 441 47 441 50 444 c 2,78,-1
 73 469 l 2,79,80
 80 476 80 476 87 469 c 2,81,-1
 163 393 l 2,82,83
 166 390 166 390 166 386 c 2,84,-1
 166 86 l 2,85,86
 166 82 166 82 163 79 c 2,87,-1
 87 3 l 2,70,71
EndSplineSet
Validated: 1
EndChar

StartChar: o
Encoding: 111 111 41
Width: 616
VWidth: 1379
GlyphClass: 1
Flags: W
LayerCount: 2
Fore
SplineSet
539 54 m 2,0,1
 532 47 532 47 527 54 c 2,2,-1
 451 128 l 2,3,4
 448 131 448 131 448 135 c 2,5,-1
 448 388 l 2,6,7
 448 392 448 392 451 394 c 2,8,-1
 527 470 l 2,9,10
 533 476 533 476 539 470 c 2,11,-1
 566 446 l 2,12,13
 569 443 569 443 568 439 c 2,14,-1
 568 86 l 2,15,16
 568 82 568 82 566 79 c 2,17,-1
 539 54 l 2,0,1
539 481 m 2,18,19
 532 474 532 474 527 481 c 2,20,-1
 451 557 l 2,21,22
 448 560 448 560 448 564 c 2,23,-1
 448 817 l 2,24,25
 448 821 448 821 451 823 c 2,26,-1
 527 898 l 2,27,28
 533 904 533 904 539 898 c 2,29,-1
 566 873 l 2,30,31
 569 870 569 870 568 866 c 2,32,-1
 568 514 l 2,33,34
 568 510 568 510 566 508 c 2,35,-1
 539 481 l 2,18,19
440 834 m 2,36,37
 437 831 437 831 433 832 c 2,38,-1
 181 832 l 2,39,40
 177 832 177 832 174 834 c 2,41,-1
 98 910 l 2,42,43
 91 917 91 917 98 924 c 2,44,-1
 123 949 l 2,45,46
 126 952 126 952 130 952 c 2,47,-1
 483 952 l 2,48,49
 487 952 487 952 490 949 c 2,50,-1
 514 924 l 2,51,52
 521 917 521 917 514 910 c 2,53,-1
 440 834 l 2,36,37
87 481 m 2,54,55
 80 474 80 474 73 481 c 2,56,-1
 48 508 l 2,57,58
 45 511 45 511 46 514 c 2,59,-1
 46 866 l 2,60,61
 46 870 46 870 48 873 c 2,62,-1
 73 898 l 2,63,64
 80 905 80 905 87 898 c 2,65,-1
 163 823 l 2,66,67
 166 820 166 820 166 817 c 2,68,-1
 166 564 l 2,69,70
 166 560 166 560 163 557 c 2,71,-1
 87 481 l 2,54,55
87 54 m 2,72,73
 80 47 80 47 73 54 c 2,74,-1
 48 79 l 2,75,76
 45 82 45 82 46 86 c 2,77,-1
 46 439 l 2,78,79
 46 443 46 443 48 446 c 2,80,-1
 73 470 l 2,81,82
 80 477 80 477 87 470 c 2,83,-1
 163 394 l 2,84,85
 166 391 166 391 166 388 c 2,86,-1
 166 135 l 2,87,88
 166 131 166 131 163 128 c 2,89,-1
 87 54 l 2,72,73
490 3 m 2,90,91
 487 0 487 0 483 0 c 2,92,-1
 130 0 l 2,93,94
 126 0 126 0 123 3 c 2,95,-1
 98 29 l 2,96,97
 91 35 91 35 98 41 c 2,98,-1
 174 117 l 2,99,100
 177 120 177 120 181 120 c 2,101,-1
 433 120 l 2,102,103
 437 120 437 120 440 117 c 2,104,-1
 514 41 l 2,105,106
 520 34 520 34 514 29 c 2,107,-1
 490 3 l 2,90,91
EndSplineSet
Validated: 1
EndChar

StartChar: p
Encoding: 112 112 42
Width: 602
VWidth: 1379
GlyphClass: 1
Flags: W
LayerCount: 2
Fore
SplineSet
538 481 m 2,0,1
 531 474 531 474 526 481 c 2,2,-1
 450 557 l 2,3,4
 447 560 447 560 447 564 c 2,5,-1
 447 815 l 2,6,7
 447 819 447 819 450 822 c 2,8,-1
 526 898 l 2,9,10
 532 904 532 904 538 898 c 2,11,-1
 564 872 l 2,12,13
 567 869 567 869 567 865 c 2,14,-1
 567 513 l 2,15,16
 567 509 567 509 564 506 c 2,17,-1
 538 481 l 2,0,1
439 834 m 2,18,19
 436 831 436 831 432 832 c 2,20,-1
 179 832 l 2,21,22
 175 832 175 832 172 834 c 2,23,-1
 156 851 l 2,24,25
 137 869 137 869 112.5 891.5 c 128,-1,26
 88 914 88 914 72 934 c 0,27,28
 68 940 68 940 70 945 c 128,-1,29
 72 950 72 950 79 950 c 2,30,-1
 481 950 l 2,31,32
 485 950 485 950 488 948 c 2,33,-1
 514 923 l 2,34,35
 521 916 521 916 514 909 c 2,36,-1
 439 834 l 2,18,19
86 481 m 2,37,38
 79 474 79 474 72 481 c 2,39,-1
 47 506 l 2,40,41
 44 509 44 509 44 513 c 2,42,-1
 44 916 l 2,43,44
 44 923 44 923 49 925.5 c 128,-1,45
 54 928 54 928 59 923 c 2,46,-1
 161 822 l 2,47,48
 164 819 164 819 164 815 c 2,49,-1
 164 564 l 2,50,51
 164 560 164 560 161 557 c 2,52,-1
 86 481 l 2,37,38
502 481 m 2,53,54
 509 474 509 474 502 468 c 2,55,-1
 451 418 l 2,56,57
 448 415 448 415 444 415 c 2,58,-1
 167 415 l 2,59,60
 163 415 163 415 160 418 c 2,61,-1
 109 468 l 2,62,63
 102 475 102 475 109 481 c 2,64,-1
 160 532 l 2,65,66
 163 535 163 535 167 535 c 2,67,-1
 444 535 l 2,68,69
 448 535 448 535 451 532 c 2,70,-1
 502 481 l 2,53,54
59 3 m 2,71,72
 53 -3 53 -3 48.5 0 c 128,-1,73
 44 3 44 3 44 10 c 2,74,-1
 44 437 l 2,75,76
 44 441 44 441 47 444 c 2,77,-1
 72 469 l 2,78,79
 79 476 79 476 86 469 c 2,80,-1
 161 393 l 2,81,82
 164 390 164 390 164 386 c 2,83,-1
 164 109 l 2,84,85
 164 103 164 103 161 103 c 2,86,-1
 59 3 l 2,71,72
EndSplineSet
Validated: 1
EndChar

StartChar: q
Encoding: 113 113 43
Width: 616
VWidth: 1379
GlyphClass: 1
Flags: W
LayerCount: 2
Fore
SplineSet
450 17 m 2,0,1
 456 11 456 11 453 5.5 c 128,-1,2
 450 0 450 0 443 0 c 2,3,-1
 131 0 l 2,4,5
 127 0 127 0 124 3 c 2,6,-1
 101 29 l 2,7,8
 94 35 94 35 101 41 c 2,9,-1
 177 117 l 2,10,11
 180 120 180 120 183 120 c 2,12,-1
 342 120 l 2,13,14
 346 120 346 120 349 117 c 2,15,-1
 450 17 l 2,0,1
570 10 m 2,16,17
 570 0 570 0 560 0 c 2,18,-1
 490 0 l 2,19,20
 486 0 486 0 483 3 c 2,21,-1
 332 153 l 2,22,23
 329 156 329 156 330 160 c 2,24,-1
 330 243 l 2,25,26
 330 253 330 253 339 252 c 2,27,-1
 399 252 l 2,28,29
 403 252 403 252 406 250 c 2,30,-1
 570 86 l 1,31,-1
 570 10 l 2,16,17
451 225 m 1,32,-1
 451 388 l 2,33,34
 451 392 451 392 454 394 c 2,35,-1
 528 470 l 2,36,37
 534 476 534 476 541 470 c 2,38,-1
 567 446 l 2,39,40
 570 443 570 443 570 439 c 2,41,-1
 570 127 l 2,42,43
 570 120 570 120 564.5 117 c 128,-1,44
 559 114 559 114 553 120 c 2,45,-1
 451 225 l 1,32,-1
541 481 m 2,46,47
 534 474 534 474 528 481 c 2,48,-1
 454 557 l 2,49,50
 451 560 451 560 451 564 c 2,51,-1
 451 817 l 2,52,53
 451 821 451 821 454 823 c 2,54,-1
 528 899 l 2,55,56
 534 905 534 905 541 899 c 2,57,-1
 567 873 l 2,58,59
 570 870 570 870 570 866 c 2,60,-1
 570 514 l 2,61,62
 570 510 570 510 567 508 c 2,63,-1
 541 481 l 2,46,47
441 834 m 2,64,65
 438 831 438 831 434 832 c 2,66,-1
 183 832 l 2,67,68
 179 832 179 832 177 834 c 2,69,-1
 101 910 l 2,70,71
 94 917 94 917 101 924 c 2,72,-1
 124 949 l 2,73,74
 127 952 127 952 131 952 c 2,75,-1
 484 952 l 2,76,77
 488 952 488 952 491 949 c 2,78,-1
 517 924 l 2,79,80
 524 917 524 917 517 910 c 2,81,-1
 441 834 l 2,64,65
88 481 m 2,82,83
 81 474 81 474 74 481 c 2,84,-1
 51 508 l 2,85,86
 48 511 48 511 48 514 c 2,87,-1
 48 866 l 2,88,89
 48 870 48 870 51 873 c 2,90,-1
 74 899 l 2,91,92
 81 906 81 906 88 899 c 2,93,-1
 164 823 l 2,94,95
 167 820 167 820 167 817 c 2,96,-1
 167 564 l 2,97,98
 167 560 167 560 164 557 c 2,99,-1
 88 481 l 2,82,83
88 54 m 2,100,101
 81 47 81 47 74 54 c 2,102,-1
 51 79 l 2,103,104
 48 82 48 82 48 86 c 2,105,-1
 48 439 l 2,106,107
 48 443 48 443 51 446 c 2,108,-1
 74 470 l 2,109,110
 81 477 81 477 88 470 c 2,111,-1
 164 394 l 2,112,113
 167 391 167 391 167 388 c 2,114,-1
 167 137 l 2,115,116
 167 133 167 133 164 130 c 2,117,-1
 88 54 l 2,100,101
EndSplineSet
Validated: 1
EndChar

StartChar: r
Encoding: 114 114 44
Width: 616
VWidth: 1379
GlyphClass: 1
Flags: W
LayerCount: 2
Fore
SplineSet
568 10 m 2,0,1
 568 0 568 0 559 0 c 2,2,-1
 487 0 l 2,3,4
 483 0 483 0 480 3 c 2,5,-1
 185 301 l 2,6,7
 182 304 182 304 182 308 c 2,8,-1
 182 390 l 2,9,10
 182 400 182 400 190 400 c 2,11,-1
 251 400 l 2,12,13
 255 400 255 400 258 397 c 2,14,-1
 566 88 l 2,15,16
 569 85 569 85 568 81 c 2,17,-1
 568 10 l 2,0,1
62 3 m 2,18,19
 56 -3 56 -3 51.5 0 c 128,-1,20
 47 3 47 3 47 10 c 2,21,-1
 47 439 l 2,22,23
 47 443 47 443 50 446 c 2,24,-1
 73 470 l 2,25,26
 80 477 80 477 87 470 c 2,27,-1
 163 394 l 2,28,29
 166 391 166 391 166 388 c 2,30,-1
 166 110 l 2,31,32
 166 106 166 106 163 103 c 2,33,-1
 62 3 l 2,18,19
440 834 m 2,34,35
 437 831 437 831 433 832 c 2,36,-1
 182 832 l 2,37,38
 178 832 178 832 175 834 c 2,39,-1
 73 935 l 2,40,41
 67 941 67 941 70 946.5 c 128,-1,42
 73 952 73 952 80 952 c 2,43,-1
 483 952 l 2,44,45
 487 952 487 952 490 949 c 2,46,-1
 516 924 l 2,47,48
 523 917 523 917 516 910 c 2,49,-1
 440 834 l 2,34,35
541 481 m 2,50,51
 534 474 534 474 528 481 c 2,52,-1
 452 557 l 2,53,54
 449 560 449 560 450 564 c 2,55,-1
 450 815 l 2,56,57
 450 819 450 819 452 822 c 2,58,-1
 528 898 l 2,59,60
 534 904 534 904 541 898 c 2,61,-1
 566 873 l 2,62,63
 569 870 569 870 568 866 c 2,64,-1
 568 510 l 1,65,-1
 541 481 l 2,50,51
503 483 m 2,66,67
 510 476 510 476 503 469 c 2,68,-1
 454 419 l 2,69,70
 451 416 451 416 447 417 c 2,71,-1
 168 417 l 2,72,73
 164 417 164 417 161 419 c 2,74,-1
 112 469 l 2,75,76
 105 476 105 476 112 483 c 2,77,-1
 161 532 l 2,78,79
 164 535 164 535 168 535 c 2,80,-1
 447 535 l 2,81,82
 451 535 451 535 454 532 c 2,83,-1
 503 483 l 2,66,67
87 481 m 2,84,85
 80 474 80 474 73 481 c 2,86,-1
 50 508 l 2,87,88
 47 511 47 511 47 514 c 2,89,-1
 47 917 l 2,90,91
 47 924 47 924 52 927 c 128,-1,92
 57 930 57 930 62 924 c 2,93,-1
 166 819 l 1,94,-1
 166 564 l 2,95,96
 166 560 166 560 163 557 c 2,97,-1
 87 481 l 2,84,85
EndSplineSet
Validated: 1
EndChar

StartChar: s
Encoding: 115 115 45
Width: 616
VWidth: 1379
GlyphClass: 1
Flags: W
LayerCount: 2
Fore
SplineSet
462 832 m 1,0,-1
 181 832 l 2,1,2
 177 832 177 832 174 834 c 2,3,-1
 98 910 l 2,4,5
 91 917 91 917 98 924 c 2,6,-1
 123 948 l 2,7,8
 126 951 126 951 130 950 c 2,9,-1
 559 950 l 2,10,11
 566 950 566 950 568.5 944.5 c 128,-1,12
 571 939 571 939 566 934 c 2,13,-1
 462 832 l 1,0,-1
87 481 m 2,14,15
 80 474 80 474 73 481 c 2,16,-1
 48 508 l 2,17,18
 45 511 45 511 46 514 c 2,19,-1
 46 866 l 2,20,21
 46 870 46 870 48 873 c 2,22,-1
 73 898 l 2,23,24
 80 905 80 905 87 898 c 2,25,-1
 161 822 l 2,26,27
 164 819 164 819 164 815 c 2,28,-1
 164 564 l 2,29,30
 164 560 164 560 161 557 c 2,31,-1
 87 481 l 2,14,15
452 418 m 2,32,33
 449 415 449 415 446 415 c 2,34,-1
 167 415 l 2,35,36
 163 415 163 415 160 418 c 2,37,-1
 110 469 l 2,38,39
 103 476 103 476 110 483 c 2,40,-1
 160 532 l 2,41,42
 163 535 163 535 167 535 c 2,43,-1
 446 535 l 2,44,45
 450 535 450 535 452 532 c 2,46,-1
 502 483 l 2,47,48
 509 476 509 476 502 469 c 2,49,-1
 452 418 l 2,32,33
539 52 m 2,50,51
 532 45 532 45 527 52 c 2,52,-1
 451 128 l 2,53,54
 448 131 448 131 448 135 c 2,55,-1
 448 386 l 2,56,57
 448 390 448 390 451 393 c 2,58,-1
 527 469 l 2,59,60
 533 475 533 475 539 469 c 2,61,-1
 566 446 l 2,62,63
 569 443 569 443 568 439 c 2,64,-1
 568 86 l 2,65,66
 568 82 568 82 566 79 c 2,67,-1
 539 52 l 2,50,51
490 3 m 2,68,69
 487 0 487 0 483 0 c 2,70,-1
 54 0 l 2,71,72
 47 0 47 0 45 5.5 c 128,-1,73
 43 11 43 11 48 17 c 2,74,-1
 148 116 l 2,75,76
 151 119 151 119 154 119 c 2,77,-1
 182 120 l 1,78,-1
 432 120 l 2,79,80
 436 120 436 120 439 117 c 2,81,-1
 514 41 l 2,82,83
 520 34 520 34 514 29 c 2,84,-1
 490 3 l 2,68,69
EndSplineSet
Validated: 1
EndChar

StartChar: t
Encoding: 116 116 46
Width: 616
VWidth: 1379
GlyphClass: 1
Flags: W
LayerCount: 2
Fore
SplineSet
328 3 m 2,0,1
 321 -4 321 -4 316 3 c 2,2,-1
 240 79 l 2,3,4
 237 82 237 82 237 86 c 2,5,-1
 237 386 l 2,6,7
 237 390 237 390 240 393 c 2,8,-1
 316 469 l 2,9,10
 322 475 322 475 328 469 c 2,11,-1
 354 446 l 2,12,13
 357 443 357 443 357 439 c 2,14,-1
 357 34 l 2,15,16
 356 33 356 33 356 32 c 0,17,18
 355 29 355 29 354 29 c 1,19,-1
 328 3 l 2,0,1
328 481 m 2,20,21
 321 474 321 474 316 481 c 2,22,-1
 240 557 l 2,23,24
 237 560 237 560 237 564 c 2,25,-1
 237 808 l 2,26,27
 237 818 237 818 247 818 c 2,28,-1
 348 818 l 2,29,30
 358 818 358 818 357 808 c 2,31,-1
 357 514 l 2,32,33
 357 510 357 510 354 508 c 2,34,-1
 328 481 l 2,20,21
575 924 m 2,35,36
 582 917 582 917 575 910 c 2,37,-1
 499 834 l 2,38,39
 496 831 496 831 492 832 c 2,40,-1
 103 832 l 2,41,42
 99 832 99 832 97 834 c 2,43,-1
 21 910 l 2,44,45
 14 917 14 917 21 924 c 2,46,-1
 46 948 l 2,47,48
 49 951 49 951 51 950 c 2,49,-1
 546 950 l 1,50,-1
 575 924 l 2,35,36
EndSplineSet
Validated: 1
EndChar

StartChar: u
Encoding: 117 117 47
Width: 616
VWidth: 1379
GlyphClass: 1
Flags: W
LayerCount: 2
Fore
SplineSet
77 0 m 2,0,1
 70 0 70 0 67.5 5.5 c 128,-1,2
 65 11 65 11 70 17 c 2,3,-1
 171 116 l 2,4,5
 174 119 174 119 178 119 c 2,6,-1
 430 119 l 2,7,8
 434 119 434 119 437 116 c 2,9,-1
 537 17 l 2,10,11
 543 11 543 11 540.5 5.5 c 128,-1,12
 538 0 538 0 531 0 c 2,13,-1
 77 0 l 2,0,1
566 34 m 2,14,15
 566 27 566 27 560 25 c 128,-1,16
 554 23 554 23 549 29 c 2,17,-1
 448 128 l 2,18,19
 445 131 445 131 446 135 c 2,20,-1
 446 386 l 2,21,22
 446 390 446 390 448 393 c 2,23,-1
 524 469 l 2,24,25
 530 475 530 475 537 469 c 2,26,-1
 563 446 l 2,27,28
 566 443 566 443 566 439 c 2,29,-1
 566 34 l 2,14,15
537 481 m 2,30,31
 530 474 530 474 524 481 c 2,32,-1
 448 557 l 2,33,34
 445 560 445 560 446 564 c 2,35,-1
 446 841 l 2,36,37
 446 845 446 845 448 848 c 2,38,-1
 549 948 l 2,39,40
 555 954 555 954 560.5 951 c 128,-1,41
 566 948 566 948 566 941 c 2,42,-1
 566 514 l 2,43,44
 566 510 566 510 563 508 c 2,45,-1
 537 481 l 2,30,31
84 481 m 2,46,47
 77 474 77 474 70 481 c 2,48,-1
 46 508 l 2,49,50
 43 511 43 511 43 514 c 2,51,-1
 43 941 l 2,52,53
 43 948 43 948 47.5 950.5 c 128,-1,54
 52 953 52 953 58 948 c 2,55,-1
 160 848 l 2,56,57
 163 845 163 845 163 841 c 2,58,-1
 163 564 l 2,59,60
 163 560 163 560 160 557 c 2,61,-1
 84 481 l 2,46,47
163 135 m 2,62,63
 163 131 163 131 160 128 c 2,64,-1
 58 29 l 2,65,66
 52 23 52 23 47.5 25.5 c 128,-1,67
 43 28 43 28 43 34 c 2,68,-1
 43 439 l 2,69,70
 43 443 43 443 46 446 c 2,71,-1
 70 469 l 2,72,73
 77 476 77 476 84 469 c 2,74,-1
 160 393 l 2,75,76
 163 390 163 390 163 386 c 2,77,-1
 163 135 l 2,62,63
EndSplineSet
Validated: 1
EndChar

StartChar: v
Encoding: 118 118 48
Width: 616
VWidth: 1379
GlyphClass: 1
Flags: W
LayerCount: 2
Fore
SplineSet
559 437 m 2,0,1
 559 431 559 431 557 430 c 0,2,3
 506 324 506 324 456.5 218.5 c 128,-1,4
 407 113 407 113 359 6 c 0,5,6
 356 0 356 0 350 0 c 2,7,-1
 320 0 l 2,8,9
 310 0 310 0 310 10 c 2,10,-1
 310 181 l 2,11,12
 310 184 310 184 318 201 c 128,-1,13
 326 218 326 218 337 243.5 c 128,-1,14
 348 269 348 269 362.5 298.5 c 128,-1,15
 377 328 377 328 390 356 c 2,16,-1
 428 436 l 2,17,18
 428 442 428 442 433 441 c 2,19,-1
 534 477 l 2,20,21
 544 480 544 480 546 470 c 2,22,-1
 559 437 l 2,0,1
537 481 m 2,23,24
 530 474 530 474 524 481 c 2,25,-1
 448 557 l 2,26,27
 445 560 445 560 446 564 c 2,28,-1
 446 846 l 1,29,-1
 548 949 l 2,30,31
 554 955 554 955 559 952 c 128,-1,32
 564 949 564 949 564 942 c 2,33,-1
 564 510 l 1,34,-1
 537 481 l 2,23,24
83 481 m 2,35,36
 76 474 76 474 69 481 c 2,37,-1
 46 508 l 2,38,39
 43 511 43 511 43 514 c 2,40,-1
 43 942 l 2,41,42
 43 949 43 949 47.5 951.5 c 128,-1,43
 52 954 52 954 58 949 c 2,44,-1
 161 846 l 1,45,-1
 161 564 l 2,46,47
 161 560 161 560 159 557 c 2,48,-1
 83 481 l 2,35,36
297 10 m 2,49,50
 297 0 297 0 287 0 c 2,51,-1
 257 0 l 2,52,53
 251 0 251 0 248 6 c 2,54,-1
 50 430 l 1,55,-1
 50 437 l 1,56,-1
 61 470 l 2,57,58
 64 480 64 480 73 477 c 2,59,-1
 177 440 l 1,60,-1
 217 356 l 2,61,62
 229 330 229 330 243.5 300 c 128,-1,63
 258 270 258 270 269.5 244 c 128,-1,64
 281 218 281 218 289 200 c 128,-1,65
 297 182 297 182 297 181 c 2,66,-1
 297 10 l 2,49,50
EndSplineSet
Validated: 1
EndChar

StartChar: w
Encoding: 119 119 49
Width: 616
VWidth: 1379
GlyphClass: 1
Flags: W
LayerCount: 2
Fore
SplineSet
539 481 m 2,0,1
 532 474 532 474 526 481 c 2,2,-1
 450 557 l 2,3,4
 447 560 447 560 447 564 c 2,5,-1
 447 841 l 2,6,7
 447 845 447 845 450 848 c 2,8,-1
 550 949 l 2,9,10
 556 955 556 955 561.5 952 c 128,-1,11
 567 949 567 949 567 942 c 2,12,-1
 567 514 l 2,13,14
 567 510 567 510 564 508 c 2,15,-1
 539 481 l 2,0,1
567 34 m 2,16,17
 567 27 567 27 561.5 25 c 128,-1,18
 556 23 556 23 550 29 c 2,19,-1
 450 130 l 2,20,21
 447 133 447 133 447 137 c 2,22,-1
 447 388 l 2,23,24
 447 392 447 392 450 394 c 2,25,-1
 526 470 l 2,26,27
 533 477 533 477 539 470 c 2,28,-1
 564 446 l 2,29,30
 567 443 567 443 567 439 c 2,31,-1
 567 34 l 2,16,17
76 0 m 2,32,33
 68 0 68 0 66 6 c 0,34,35
 65 13 65 13 69 17 c 2,36,-1
 171 117 l 2,37,38
 174 120 174 120 178 120 c 2,39,-1
 430 120 l 2,40,41
 436 120 436 120 439 117 c 2,42,-1
 539 17 l 2,43,44
 545 11 545 11 542 5.5 c 128,-1,45
 539 0 539 0 532 0 c 2,46,-1
 76 0 l 2,32,33
259 137 m 2,47,48
 249 137 249 137 250 146 c 2,49,-1
 250 439 l 2,50,51
 250 443 250 443 252 446 c 2,52,-1
 303 495 l 2,53,54
 309 501 309 501 316 495 c 2,55,-1
 367 446 l 2,56,57
 370 443 370 443 370 439 c 2,58,-1
 370 146 l 2,59,60
 370 136 370 136 360 137 c 2,61,-1
 259 137 l 2,47,48
83 481 m 2,62,63
 76 474 76 474 69 481 c 2,64,-1
 44 508 l 2,65,66
 41 511 41 511 41 514 c 2,67,-1
 41 942 l 2,68,69
 41 949 41 949 46.5 951.5 c 128,-1,70
 52 954 52 954 58 949 c 2,71,-1
 159 848 l 2,72,73
 162 845 162 845 161 841 c 2,74,-1
 161 564 l 2,75,76
 161 560 161 560 159 557 c 2,77,-1
 83 481 l 2,62,63
161 137 m 2,78,79
 161 133 161 133 159 130 c 2,80,-1
 58 29 l 2,81,82
 52 23 52 23 46.5 25.5 c 128,-1,83
 41 28 41 28 41 34 c 2,84,-1
 41 439 l 2,85,86
 41 443 41 443 44 446 c 2,87,-1
 69 470 l 2,88,89
 76 477 76 477 83 470 c 2,90,-1
 159 394 l 2,91,92
 162 391 162 391 161 388 c 2,93,-1
 161 137 l 2,78,79
EndSplineSet
Validated: 1
EndChar

StartChar: x
Encoding: 120 120 50
Width: 616
VWidth: 1379
GlyphClass: 1
Flags: W
LayerCount: 2
Fore
SplineSet
567 40 m 1,0,-1
 552 7 l 2,1,2
 549 0 549 0 543 0 c 2,3,-1
 462 0 l 2,4,5
 456 0 456 0 454 6 c 256,6,7
 451 12 451 12 440.5 37 c 128,-1,8
 430 62 430 62 415 97 c 128,-1,9
 400 132 400 132 383.5 172 c 128,-1,10
 367 212 367 212 352.5 246 c 128,-1,11
 338 280 338 280 326 310.5 c 128,-1,12
 314 341 314 341 314 341 c 1,13,-1
 314 459 l 2,14,15
 314 469 314 469 324 469 c 2,16,-1
 382 469 l 2,17,18
 388 469 388 469 390 463 c 2,19,-1
 567 40 l 1,0,-1
301 341 m 1,20,21
 301 341 301 341 287.5 310.5 c 128,-1,22
 274 280 274 280 260 246 c 128,-1,23
 246 212 246 212 229 172 c 128,-1,24
 212 132 212 132 197 97 c 128,-1,25
 182 62 182 62 171.5 36.5 c 128,-1,26
 161 11 161 11 159 6 c 256,27,28
 156 0 156 0 150 0 c 2,29,-1
 69 0 l 2,30,31
 62 0 62 0 59 7 c 2,32,-1
 46 40 l 1,33,-1
 222 463 l 2,34,35
 225 469 225 469 230 469 c 2,36,-1
 291 469 l 2,37,38
 301 469 301 469 301 459 c 2,39,-1
 301 341 l 1,20,21
301 492 m 2,40,41
 301 482 301 482 291 483 c 2,42,-1
 230 483 l 2,43,44
 224 483 224 483 222 488 c 2,45,-1
 46 910 l 1,46,-1
 59 943 l 2,47,48
 62 950 62 950 69 950 c 2,49,-1
 150 950 l 2,50,51
 156 950 156 950 159 945 c 256,52,53
 162 939 162 939 172 913.5 c 128,-1,54
 182 888 182 888 197 853 c 128,-1,55
 212 818 212 818 229 778 c 128,-1,56
 246 738 246 738 260 705 c 128,-1,57
 274 672 274 672 287.5 641.5 c 128,-1,58
 301 611 301 611 301 611 c 1,59,-1
 301 492 l 2,40,41
567 910 m 1,60,-1
 390 488 l 2,61,62
 387 482 387 482 382 483 c 2,63,-1
 324 483 l 2,64,65
 314 483 314 483 314 492 c 2,66,-1
 314 611 l 1,67,68
 314 611 314 611 326 641.5 c 128,-1,69
 338 672 338 672 352.5 705 c 128,-1,70
 367 738 367 738 383.5 778 c 128,-1,71
 400 818 400 818 415 853 c 128,-1,72
 430 888 430 888 440.5 913.5 c 128,-1,73
 451 939 451 939 454 945 c 256,74,75
 457 951 457 951 462 950 c 2,76,-1
 543 950 l 2,77,78
 547 950 547 950 550 945 c 2,79,-1
 567 910 l 1,60,-1
EndSplineSet
Validated: 1
EndChar

StartChar: y
Encoding: 121 121 51
Width: 616
VWidth: 1379
GlyphClass: 1
Flags: W
LayerCount: 2
Fore
SplineSet
538 481 m 2,0,1
 531 474 531 474 526 481 c 2,2,-1
 450 557 l 2,3,4
 447 560 447 560 447 564 c 2,5,-1
 447 840 l 2,6,7
 447 844 447 844 450 847 c 2,8,-1
 550 948 l 2,9,10
 556 954 556 954 561.5 951 c 128,-1,11
 567 948 567 948 567 941 c 2,12,-1
 567 513 l 2,13,14
 567 509 567 509 564 506 c 2,15,-1
 538 481 l 2,0,1
538 52 m 2,16,17
 531 45 531 45 526 52 c 2,18,-1
 450 128 l 2,19,20
 447 131 447 131 447 135 c 2,21,-1
 447 386 l 2,22,23
 447 390 447 390 450 393 c 2,24,-1
 526 469 l 2,25,26
 532 475 532 475 538 469 c 2,27,-1
 564 444 l 2,28,29
 567 441 567 441 567 437 c 2,30,-1
 567 86 l 2,31,32
 567 82 567 82 564 79 c 2,33,-1
 538 52 l 2,16,17
488 3 m 2,34,35
 485 0 485 0 481 0 c 2,36,-1
 52 0 l 2,37,38
 45 0 45 0 43 5.5 c 128,-1,39
 41 11 41 11 47 17 c 2,40,-1
 150 119 l 1,41,-1
 432 119 l 2,42,43
 436 119 436 119 439 116 c 2,44,-1
 514 40 l 2,45,46
 520 33 520 33 514 28 c 2,47,-1
 488 3 l 2,34,35
451 418 m 2,48,49
 448 415 448 415 444 415 c 2,50,-1
 166 415 l 2,51,52
 162 415 162 415 159 418 c 2,53,-1
 109 468 l 2,54,55
 102 475 102 475 109 481 c 2,56,-1
 159 532 l 2,57,58
 162 535 162 535 166 535 c 2,59,-1
 444 535 l 2,60,61
 448 535 448 535 451 532 c 2,62,-1
 501 481 l 2,63,64
 508 474 508 474 501 468 c 2,65,-1
 451 418 l 2,48,49
84 481 m 2,66,67
 77 474 77 474 70 481 c 2,68,-1
 47 506 l 2,69,70
 44 509 44 509 44 513 c 2,71,-1
 44 941 l 2,72,73
 44 948 44 948 49 950.5 c 128,-1,74
 54 953 54 953 59 948 c 2,75,-1
 163 844 l 1,76,-1
 163 564 l 2,77,78
 163 560 163 560 160 557 c 2,79,-1
 84 481 l 2,66,67
EndSplineSet
Validated: 1
EndChar

StartChar: z
Encoding: 122 122 52
Width: 616
VWidth: 1379
GlyphClass: 1
Flags: W
LayerCount: 2
Fore
SplineSet
563 40 m 2,0,1
 569 33 569 33 563 28 c 2,2,-1
 538 3 l 2,3,4
 535 0 535 0 531 0 c 2,5,-1
 99 0 l 2,6,7
 95 0 95 0 92 3 c 2,8,-1
 52 43 l 2,9,10
 48 47 48 47 51 54 c 2,11,-1
 77 113 l 2,12,13
 80 119 80 119 86 119 c 2,14,-1
 480 119 l 2,15,16
 484 119 484 119 487 116 c 2,17,-1
 563 40 l 2,0,1
339 408 m 2,18,19
 339 407 339 407 338.5 404 c 128,-1,20
 338 401 338 401 338 400 c 2,21,-1
 219 139 l 2,22,23
 216 133 216 133 211 134 c 2,24,-1
 101 134 l 2,25,26
 87 134 87 134 92 148 c 2,27,-1
 226 441 l 1,28,-1
 273 469 l 1,29,-1
 308 469 l 2,30,31
 314 469 314 469 316 463 c 2,32,-1
 339 408 l 2,18,19
488 726 m 2,33,34
 467 676 467 676 443 623.5 c 128,-1,35
 419 571 419 571 400 535 c 1,36,-1
 400 537 l 1,37,38
 396 531 396 531 378 518.5 c 128,-1,39
 360 506 360 506 345 495 c 2,40,-1
 328 481 l 1,41,-1
 281 481 l 2,42,43
 274 481 274 481 272 488 c 2,44,-1
 261 517 l 1,45,-1
 396 811 l 2,46,47
 399 817 399 817 404 817 c 2,48,-1
 514 817 l 2,49,50
 528 817 528 817 523 803 c 2,51,-1
 488 726 l 2,33,34
538 837 m 2,52,53
 535 831 535 831 530 832 c 2,54,-1
 134 832 l 2,55,56
 131 832 131 832 128 834 c 2,57,-1
 52 910 l 2,58,59
 45 917 45 917 52 924 c 2,60,-1
 77 948 l 2,61,62
 80 951 80 951 84 950 c 2,63,-1
 514 950 l 2,64,65
 518 950 518 950 521 948 c 2,66,-1
 563 906 l 2,67,68
 567 902 567 902 564 895 c 2,69,-1
 538 837 l 2,52,53
EndSplineSet
Validated: 1
EndChar

StartChar: one
Encoding: 49 49 53
Width: 616
VWidth: 1379
GlyphClass: 1
Flags: W
LayerCount: 2
Fore
SplineSet
539 481 m 6,0,1
 532 474 532 474 526 481 c 6,2,-1
 450 557 l 6,3,4
 447 560 447 560 447 564 c 6,5,-1
 447 865 l 6,6,7
 447 869 447 869 450 872 c 6,8,-1
 526 948 l 6,9,10
 533 955 533 955 539 948 c 6,11,-1
 564 923 l 6,12,13
 567 920 567 920 567 916 c 6,14,-1
 567 513 l 6,15,16
 567 509 567 509 564 506 c 6,17,-1
 539 481 l 6,0,1
539 3 m 6,18,19
 532 -4 532 -4 526 3 c 6,20,-1
 450 79 l 6,21,22
 447 82 447 82 447 86 c 6,23,-1
 447 386 l 6,24,25
 447 390 447 390 450 393 c 6,26,-1
 526 469 l 6,27,28
 533 476 533 476 539 469 c 6,29,-1
 564 444 l 6,30,31
 567 441 567 441 567 437 c 6,32,-1
 567 34 l 6,33,34
 567 30 567 30 564 28 c 6,35,-1
 539 3 l 6,18,19
EndSplineSet
Validated: 1
EndChar

StartChar: zero
Encoding: 48 48 54
Width: 616
VWidth: 1379
GlyphClass: 1
Flags: W
LayerCount: 2
Fore
SplineSet
539 54 m 6,0,1
 532 47 532 47 527 54 c 6,2,-1
 451 128 l 6,3,4
 448 131 448 131 448 135 c 6,5,-1
 448 388 l 6,6,7
 448 392 448 392 451 394 c 6,8,-1
 527 470 l 6,9,10
 533 476 533 476 539 470 c 6,11,-1
 566 446 l 6,12,13
 569 443 569 443 568 439 c 6,14,-1
 568 86 l 6,15,16
 568 82 568 82 566 79 c 6,17,-1
 539 54 l 6,0,1
539 481 m 6,18,19
 532 474 532 474 527 481 c 6,20,-1
 451 557 l 6,21,22
 448 560 448 560 448 564 c 6,23,-1
 448 817 l 6,24,25
 448 821 448 821 451 823 c 6,26,-1
 527 898 l 6,27,28
 533 904 533 904 539 898 c 6,29,-1
 566 873 l 6,30,31
 569 870 569 870 568 866 c 6,32,-1
 568 514 l 6,33,34
 568 510 568 510 566 508 c 6,35,-1
 539 481 l 6,18,19
440 834 m 6,36,37
 437 831 437 831 433 832 c 6,38,-1
 181 832 l 6,39,40
 177 832 177 832 174 834 c 6,41,-1
 98 910 l 6,42,43
 91 917 91 917 98 924 c 6,44,-1
 123 949 l 6,45,46
 126 952 126 952 130 952 c 6,47,-1
 483 952 l 6,48,49
 487 952 487 952 490 949 c 6,50,-1
 514 924 l 6,51,52
 521 917 521 917 514 910 c 6,53,-1
 440 834 l 6,36,37
87 481 m 6,54,55
 80 474 80 474 73 481 c 6,56,-1
 48 508 l 6,57,58
 45 511 45 511 46 514 c 6,59,-1
 46 866 l 6,60,61
 46 870 46 870 48 873 c 6,62,-1
 73 898 l 6,63,64
 80 905 80 905 87 898 c 6,65,-1
 163 823 l 6,66,67
 166 820 166 820 166 817 c 6,68,-1
 166 564 l 6,69,70
 166 560 166 560 163 557 c 6,71,-1
 87 481 l 6,54,55
87 54 m 6,72,73
 80 47 80 47 73 54 c 6,74,-1
 48 79 l 6,75,76
 45 82 45 82 46 86 c 6,77,-1
 46 439 l 6,78,79
 46 443 46 443 48 446 c 6,80,-1
 73 470 l 6,81,82
 80 477 80 477 87 470 c 6,83,-1
 163 394 l 6,84,85
 166 391 166 391 166 388 c 6,86,-1
 166 135 l 6,87,88
 166 131 166 131 163 128 c 6,89,-1
 87 54 l 6,72,73
490 3 m 6,90,91
 487 0 487 0 483 0 c 6,92,-1
 130 0 l 6,93,94
 126 0 126 0 123 3 c 6,95,-1
 98 29 l 6,96,97
 91 35 91 35 98 41 c 6,98,-1
 174 117 l 6,99,100
 177 120 177 120 181 120 c 6,101,-1
 433 120 l 6,102,103
 437 120 437 120 440 117 c 6,104,-1
 514 41 l 6,105,106
 520 34 520 34 514 29 c 6,107,-1
 490 3 l 6,90,91
EndSplineSet
Validated: 1
EndChar

StartChar: five
Encoding: 53 53 55
Width: 616
VWidth: 1379
GlyphClass: 1
Flags: W
LayerCount: 2
Fore
SplineSet
462 832 m 1,0,-1
 181 832 l 2,1,2
 177 832 177 832 174 834 c 2,3,-1
 98 910 l 2,4,5
 91 917 91 917 98 924 c 2,6,-1
 123 948 l 2,7,8
 126 951 126 951 130 950 c 2,9,-1
 559 950 l 2,10,11
 566 950 566 950 568.5 944.5 c 128,-1,12
 571 939 571 939 566 934 c 2,13,-1
 462 832 l 1,0,-1
87 481 m 2,14,15
 80 474 80 474 73 481 c 2,16,-1
 48 508 l 2,17,18
 45 511 45 511 46 514 c 2,19,-1
 46 866 l 2,20,21
 46 870 46 870 48 873 c 2,22,-1
 73 898 l 2,23,24
 80 905 80 905 87 898 c 2,25,-1
 161 822 l 2,26,27
 164 819 164 819 164 815 c 2,28,-1
 164 564 l 2,29,30
 164 560 164 560 161 557 c 2,31,-1
 87 481 l 2,14,15
452 418 m 2,32,33
 449 415 449 415 446 415 c 2,34,-1
 167 415 l 2,35,36
 163 415 163 415 160 418 c 2,37,-1
 110 469 l 2,38,39
 103 476 103 476 110 483 c 2,40,-1
 160 532 l 2,41,42
 163 535 163 535 167 535 c 2,43,-1
 446 535 l 2,44,45
 450 535 450 535 452 532 c 2,46,-1
 502 483 l 2,47,48
 509 476 509 476 502 469 c 2,49,-1
 452 418 l 2,32,33
539 52 m 2,50,51
 532 45 532 45 527 52 c 2,52,-1
 451 128 l 2,53,54
 448 131 448 131 448 135 c 2,55,-1
 448 386 l 2,56,57
 448 390 448 390 451 393 c 2,58,-1
 527 469 l 2,59,60
 533 475 533 475 539 469 c 2,61,-1
 566 446 l 2,62,63
 569 443 569 443 568 439 c 2,64,-1
 568 86 l 2,65,66
 568 82 568 82 566 79 c 2,67,-1
 539 52 l 2,50,51
490 3 m 2,68,69
 487 0 487 0 483 0 c 2,70,-1
 54 0 l 2,71,72
 47 0 47 0 45 5.5 c 128,-1,73
 43 11 43 11 48 17 c 2,74,-1
 148 116 l 2,75,76
 151 119 151 119 154 119 c 2,77,-1
 182 120 l 1,78,-1
 432 120 l 2,79,80
 436 120 436 120 439 117 c 2,81,-1
 514 41 l 2,82,83
 520 34 520 34 514 29 c 2,84,-1
 490 3 l 2,68,69
EndSplineSet
Validated: 1
EndChar

StartChar: three
Encoding: 51 51 56
Width: 616
VWidth: 1379
GlyphClass: 1
Flags: W
LayerCount: 2
Fore
SplineSet
79 0 m 6,0,1
 72 0 72 0 70 5.5 c 132,-1,2
 68 11 68 11 73 17 c 6,3,-1
 177 119 l 5,4,-1
 432 119 l 6,5,6
 436 119 436 119 439 116 c 6,7,-1
 539 17 l 6,8,9
 545 11 545 11 542 5.5 c 132,-1,10
 539 0 539 0 532 0 c 6,11,-1
 79 0 l 6,0,1
567 34 m 6,12,13
 567 27 567 27 562 24.5 c 132,-1,14
 557 22 557 22 552 28 c 6,15,-1
 450 128 l 6,16,17
 447 131 447 131 447 135 c 6,18,-1
 447 386 l 6,19,20
 447 390 447 390 450 393 c 6,21,-1
 526 469 l 6,22,23
 533 476 533 476 539 469 c 6,24,-1
 564 444 l 6,25,26
 567 441 567 441 567 437 c 6,27,-1
 567 34 l 6,12,13
502 481 m 6,28,29
 509 474 509 474 502 468 c 6,30,-1
 452 418 l 6,31,32
 449 415 449 415 446 415 c 6,33,-1
 167 415 l 6,34,35
 163 415 163 415 160 418 c 6,36,-1
 110 468 l 6,37,38
 103 475 103 475 110 481 c 6,39,-1
 160 532 l 6,40,41
 163 535 163 535 167 535 c 6,42,-1
 446 535 l 6,43,44
 450 535 450 535 452 532 c 6,45,-1
 502 481 l 6,28,29
567 513 m 6,46,47
 567 509 567 509 564 506 c 6,48,-1
 539 481 l 6,49,50
 532 474 532 474 526 481 c 6,51,-1
 450 557 l 6,52,53
 447 560 447 560 447 564 c 6,54,-1
 447 815 l 6,55,56
 447 819 447 819 450 822 c 6,57,-1
 552 923 l 6,58,59
 558 929 558 929 562.5 926 c 132,-1,60
 567 923 567 923 567 916 c 6,61,-1
 567 513 l 6,46,47
439 834 m 6,62,63
 436 831 436 831 432 832 c 6,64,-1
 177 832 l 5,65,-1
 73 934 l 6,66,67
 67 940 67 940 69.5 945 c 132,-1,68
 72 950 72 950 79 950 c 6,69,-1
 532 950 l 6,70,71
 539 950 539 950 542 944.5 c 132,-1,72
 545 939 545 939 539 934 c 6,73,-1
 439 834 l 6,62,63
EndSplineSet
Validated: 1
EndChar

StartChar: four
Encoding: 52 52 57
Width: 616
VWidth: 1379
GlyphClass: 1
Flags: W
LayerCount: 2
Fore
SplineSet
567 10 m 6,0,1
 567 3 567 3 561.5 0 c 132,-1,2
 556 -3 556 -3 550 3 c 6,3,-1
 450 103 l 6,4,5
 447 106 447 106 447 110 c 6,6,-1
 447 388 l 6,7,8
 447 392 447 392 450 394 c 6,9,-1
 526 470 l 6,10,11
 533 477 533 477 538 470 c 6,12,-1
 564 446 l 6,13,14
 567 443 567 443 567 439 c 6,15,-1
 567 10 l 6,0,1
567 514 m 6,16,17
 567 510 567 510 564 508 c 6,18,-1
 538 481 l 6,19,20
 532 474 532 474 526 481 c 6,21,-1
 450 557 l 6,22,23
 447 560 447 560 447 564 c 6,24,-1
 447 841 l 6,25,26
 447 845 447 845 450 848 c 6,27,-1
 550 949 l 6,28,29
 556 955 556 955 561.5 952 c 132,-1,30
 567 949 567 949 567 942 c 6,31,-1
 567 514 l 6,16,17
164 564 m 6,32,33
 164 560 164 560 161 557 c 6,34,-1
 86 481 l 6,35,36
 79 474 79 474 72 481 c 6,37,-1
 47 508 l 6,38,39
 44 511 44 511 44 514 c 6,40,-1
 44 942 l 6,41,42
 44 949 44 949 49.5 951.5 c 132,-1,43
 55 954 55 954 59 949 c 6,44,-1
 161 848 l 6,45,46
 164 845 164 845 164 841 c 6,47,-1
 164 564 l 6,32,33
451 419 m 6,48,49
 448 416 448 416 444 417 c 6,50,-1
 166 417 l 6,51,52
 162 417 162 417 159 419 c 6,53,-1
 109 469 l 6,54,55
 102 476 102 476 109 483 c 6,56,-1
 159 532 l 6,57,58
 162 535 162 535 166 535 c 6,59,-1
 444 535 l 6,60,61
 448 535 448 535 451 532 c 6,62,-1
 501 483 l 6,63,64
 508 476 508 476 501 469 c 6,65,-1
 451 419 l 6,48,49
EndSplineSet
Validated: 1
EndChar

StartChar: two
Encoding: 50 50 58
Width: 616
VWidth: 1379
GlyphClass: 1
Flags: W
LayerCount: 2
Fore
SplineSet
567 513 m 2,0,1
 567 509 567 509 564 506 c 2,2,-1
 538 481 l 2,3,4
 531 474 531 474 526 481 c 2,5,-1
 450 556 l 2,6,7
 447 559 447 559 447 563 c 2,8,-1
 447 815 l 2,9,10
 447 819 447 819 450 822 c 2,11,-1
 526 898 l 2,12,13
 532 904 532 904 538 898 c 2,14,-1
 564 872 l 2,15,16
 567 869 567 869 567 865 c 2,17,-1
 567 513 l 2,0,1
439 833 m 2,18,19
 436 830 436 830 432 830 c 2,20,-1
 154 830 l 2,21,22
 150 830 150 830 148 833 c 2,23,-1
 47 934 l 2,24,25
 41 940 41 940 43.5 945 c 128,-1,26
 46 950 46 950 52 950 c 2,27,-1
 481 950 l 2,28,29
 485 950 485 950 488 948 c 2,30,-1
 514 923 l 2,31,32
 521 916 521 916 514 909 c 2,33,-1
 439 833 l 2,18,19
164 135 m 2,34,35
 164 131 164 131 161 128 c 2,36,-1
 86 52 l 2,37,38
 79 45 79 45 72 52 c 2,39,-1
 47 77 l 2,40,41
 44 80 44 80 44 84 c 2,42,-1
 44 437 l 2,43,44
 44 441 44 441 47 444 c 2,45,-1
 72 469 l 2,46,47
 79 476 79 476 86 469 c 2,48,-1
 161 393 l 2,49,50
 164 390 164 390 164 386 c 2,51,-1
 164 135 l 2,34,35
128 0 m 2,52,53
 124 0 124 0 121 3 c 2,54,-1
 97 28 l 2,55,56
 90 34 90 34 97 40 c 2,57,-1
 172 116 l 2,58,59
 175 119 175 119 179 119 c 2,60,-1
 458 119 l 2,61,62
 464 119 464 119 463 116 c 2,63,-1
 564 17 l 2,64,65
 570 11 570 11 567 5.5 c 128,-1,66
 564 0 564 0 557 0 c 2,67,-1
 128 0 l 2,52,53
451 418 m 2,68,69
 448 415 448 415 444 415 c 2,70,-1
 167 415 l 2,71,72
 163 415 163 415 160 418 c 2,73,-1
 109 468 l 2,74,75
 102 475 102 475 109 481 c 2,76,-1
 160 532 l 2,77,78
 163 535 163 535 167 535 c 2,79,-1
 444 535 l 2,80,81
 448 535 448 535 451 532 c 2,82,-1
 502 481 l 2,83,84
 509 474 509 474 502 468 c 2,85,-1
 451 418 l 2,68,69
EndSplineSet
Validated: 1
EndChar

StartChar: six
Encoding: 54 54 59
Width: 616
VWidth: 1379
GlyphClass: 1
Flags: W
LayerCount: 2
Fore
SplineSet
488 3 m 2,0,1
 485 0 485 0 481 0 c 2,2,-1
 130 0 l 2,3,4
 126 0 126 0 123 3 c 2,5,-1
 98 28 l 2,6,7
 91 34 91 34 98 40 c 2,8,-1
 174 116 l 2,9,10
 177 119 177 119 181 119 c 2,11,-1
 432 119 l 2,12,13
 436 119 436 119 439 116 c 2,14,-1
 514 40 l 2,15,16
 520 33 520 33 514 28 c 2,17,-1
 488 3 l 2,0,1
567 84 m 2,18,19
 567 80 567 80 564 77 c 2,20,-1
 539 52 l 2,21,22
 532 45 532 45 527 52 c 2,23,-1
 451 128 l 2,24,25
 448 131 448 131 448 135 c 2,26,-1
 448 386 l 2,27,28
 448 390 448 390 451 393 c 2,29,-1
 527 469 l 2,30,31
 533 475 533 475 539 469 c 2,32,-1
 564 444 l 2,33,34
 567 441 567 441 567 437 c 2,35,-1
 567 84 l 2,18,19
465 833 m 2,36,37
 465 830 465 830 459 830 c 2,38,-1
 181 830 l 2,39,40
 177 830 177 830 174 833 c 2,41,-1
 98 909 l 2,42,43
 91 916 91 916 98 923 c 2,44,-1
 123 948 l 2,45,46
 126 951 126 951 130 950 c 2,47,-1
 559 950 l 2,48,49
 566 950 566 950 568.5 944.5 c 128,-1,50
 571 939 571 939 566 934 c 2,51,-1
 465 833 l 2,36,37
502 481 m 2,52,53
 509 474 509 474 502 468 c 2,54,-1
 452 418 l 2,55,56
 449 415 449 415 446 415 c 2,57,-1
 167 415 l 2,58,59
 163 415 163 415 160 418 c 2,60,-1
 110 468 l 2,61,62
 103 475 103 475 110 481 c 2,63,-1
 160 532 l 2,64,65
 163 535 163 535 167 535 c 2,66,-1
 446 535 l 2,67,68
 450 535 450 535 452 532 c 2,69,-1
 502 481 l 2,52,53
164 135 m 2,70,71
 164 131 164 131 161 128 c 2,72,-1
 86 52 l 2,73,74
 79 45 79 45 72 52 c 2,75,-1
 48 77 l 2,76,77
 45 80 45 80 46 84 c 2,78,-1
 46 437 l 2,79,80
 46 441 46 441 48 444 c 2,81,-1
 72 469 l 2,82,83
 79 476 79 476 86 469 c 2,84,-1
 161 393 l 2,85,86
 164 390 164 390 164 386 c 2,87,-1
 164 135 l 2,70,71
164 563 m 2,88,89
 164 559 164 559 161 556 c 2,90,-1
 86 481 l 2,91,92
 79 474 79 474 72 481 c 2,93,-1
 48 506 l 2,94,95
 45 509 45 509 46 513 c 2,96,-1
 46 865 l 2,97,98
 46 869 46 869 48 872 c 2,99,-1
 72 898 l 2,100,101
 79 905 79 905 86 898 c 2,102,-1
 161 822 l 2,103,104
 164 819 164 819 164 815 c 2,105,-1
 164 563 l 2,88,89
EndSplineSet
Validated: 1
EndChar

StartChar: nine
Encoding: 57 57 60
Width: 616
VWidth: 1379
GlyphClass: 1
Flags: W
LayerCount: 2
Fore
SplineSet
567 514 m 2,0,1
 567 510 567 510 564 508 c 2,2,-1
 538 481 l 2,3,4
 531 474 531 474 526 481 c 2,5,-1
 450 557 l 2,6,7
 447 560 447 560 447 564 c 2,8,-1
 447 815 l 2,9,10
 447 819 447 819 450 822 c 2,11,-1
 526 898 l 2,12,13
 532 904 532 904 538 898 c 2,14,-1
 564 873 l 2,15,16
 567 870 567 870 567 866 c 2,17,-1
 567 514 l 2,0,1
439 834 m 2,18,19
 436 831 436 831 432 832 c 2,20,-1
 179 832 l 2,21,22
 175 832 175 832 172 834 c 2,23,-1
 97 910 l 2,24,25
 90 917 90 917 97 924 c 2,26,-1
 121 949 l 2,27,28
 124 952 124 952 128 952 c 2,29,-1
 481 952 l 2,30,31
 485 952 485 952 488 949 c 2,32,-1
 514 924 l 2,33,34
 521 917 521 917 514 910 c 2,35,-1
 439 834 l 2,18,19
164 564 m 2,36,37
 164 560 164 560 161 557 c 2,38,-1
 86 481 l 2,39,40
 79 474 79 474 72 481 c 2,41,-1
 47 508 l 2,42,43
 44 511 44 511 44 514 c 2,44,-1
 44 866 l 2,45,46
 44 870 44 870 47 873 c 2,47,-1
 72 898 l 2,48,49
 79 905 79 905 86 898 c 2,50,-1
 161 822 l 2,51,52
 164 819 164 819 164 815 c 2,53,-1
 164 564 l 2,36,37
502 483 m 2,54,55
 509 476 509 476 502 469 c 2,56,-1
 451 419 l 2,57,58
 448 416 448 416 444 417 c 2,59,-1
 167 417 l 2,60,61
 163 417 163 417 160 419 c 2,62,-1
 109 469 l 2,63,64
 102 476 102 476 109 483 c 2,65,-1
 160 532 l 2,66,67
 163 535 163 535 167 535 c 2,68,-1
 448 535 l 1,69,-1
 502 483 l 2,54,55
488 3 m 2,70,71
 485 0 485 0 481 0 c 2,72,-1
 52 0 l 2,73,74
 45 0 45 0 43 5.5 c 128,-1,75
 41 11 41 11 47 17 c 2,76,-1
 146 116 l 2,77,78
 149 119 149 119 153 119 c 2,79,-1
 182 120 l 1,80,-1
 432 120 l 2,81,82
 436 120 436 120 439 117 c 2,83,-1
 514 41 l 2,84,85
 520 34 520 34 514 29 c 2,86,-1
 488 3 l 2,70,71
567 86 m 2,87,88
 567 82 567 82 564 79 c 2,89,-1
 538 52 l 2,90,91
 531 45 531 45 526 52 c 2,92,-1
 450 128 l 2,93,94
 447 131 447 131 447 135 c 2,95,-1
 447 388 l 2,96,97
 447 392 447 392 450 394 c 2,98,-1
 526 470 l 2,99,100
 532 476 532 476 538 470 c 2,101,-1
 564 446 l 2,102,103
 567 443 567 443 567 439 c 2,104,-1
 567 86 l 2,87,88
EndSplineSet
Validated: 1
EndChar

StartChar: seven
Encoding: 55 55 61
Width: 616
VWidth: 1379
GlyphClass: 1
Flags: W
LayerCount: 2
Fore
SplineSet
567 10 m 6,0,1
 567 3 567 3 562 0 c 132,-1,2
 557 -3 557 -3 552 3 c 6,3,-1
 450 103 l 6,4,5
 447 103 447 103 447 109 c 6,6,-1
 447 386 l 6,7,8
 447 390 447 390 450 393 c 6,9,-1
 526 469 l 6,10,11
 533 476 533 476 539 469 c 6,12,-1
 564 444 l 6,13,14
 567 441 567 441 567 437 c 6,15,-1
 567 10 l 6,0,1
567 513 m 6,16,17
 567 509 567 509 564 506 c 6,18,-1
 539 481 l 6,19,20
 532 474 532 474 526 481 c 6,21,-1
 450 557 l 6,22,23
 447 560 447 560 447 564 c 6,24,-1
 447 815 l 6,25,26
 447 819 447 819 450 822 c 6,27,-1
 552 923 l 6,28,29
 558 929 558 929 562.5 926 c 132,-1,30
 567 923 567 923 567 916 c 6,31,-1
 567 513 l 6,16,17
439 834 m 6,32,33
 436 831 436 831 432 832 c 6,34,-1
 179 832 l 6,35,36
 175 832 175 832 172 834 c 6,37,-1
 73 934 l 6,38,39
 67 940 67 940 70 945 c 132,-1,40
 73 950 73 950 80 950 c 6,41,-1
 532 950 l 6,42,43
 539 950 539 950 542 944.5 c 132,-1,44
 545 939 545 939 539 934 c 6,45,-1
 439 834 l 6,32,33
EndSplineSet
Validated: 1
EndChar

StartChar: eight
Encoding: 56 56 62
Width: 616
VWidth: 1379
GlyphClass: 1
Flags: W
LayerCount: 2
Fore
SplineSet
490 3 m 2,0,1
 487 0 487 0 483 0 c 2,2,-1
 130 0 l 2,3,4
 126 0 126 0 123 3 c 2,5,-1
 98 28 l 2,6,7
 91 34 91 34 98 40 c 2,8,-1
 174 116 l 2,9,10
 177 119 177 119 181 119 c 2,11,-1
 432 119 l 2,12,13
 436 119 436 119 439 116 c 2,14,-1
 514 40 l 2,15,16
 520 33 520 33 514 28 c 2,17,-1
 490 3 l 2,0,1
567 86 m 2,18,19
 567 82 567 82 564 79 c 2,20,-1
 539 52 l 2,21,22
 532 45 532 45 527 52 c 2,23,-1
 451 128 l 2,24,25
 448 131 448 131 448 135 c 2,26,-1
 448 386 l 2,27,28
 448 390 448 390 451 393 c 2,29,-1
 527 469 l 2,30,31
 533 475 533 475 539 469 c 2,32,-1
 564 444 l 2,33,34
 567 441 567 441 567 437 c 2,35,-1
 567 86 l 2,18,19
567 513 m 2,36,37
 567 509 567 509 564 506 c 2,38,-1
 539 481 l 2,39,40
 532 474 532 474 527 481 c 2,41,-1
 451 557 l 2,42,43
 448 560 448 560 448 564 c 2,44,-1
 448 815 l 2,45,46
 448 819 448 819 451 822 c 2,47,-1
 527 898 l 2,48,49
 533 904 533 904 539 898 c 2,50,-1
 564 872 l 2,51,52
 567 869 567 869 567 865 c 2,53,-1
 567 513 l 2,36,37
439 834 m 2,54,55
 436 831 436 831 432 832 c 2,56,-1
 181 832 l 2,57,58
 177 832 177 832 174 834 c 2,59,-1
 98 909 l 2,60,61
 91 916 91 916 98 923 c 2,62,-1
 123 948 l 2,63,64
 126 951 126 951 130 950 c 2,65,-1
 483 950 l 2,66,67
 487 950 487 950 490 948 c 2,68,-1
 514 923 l 2,69,70
 521 916 521 916 514 909 c 2,71,-1
 439 834 l 2,54,55
164 564 m 2,72,73
 164 560 164 560 161 557 c 2,74,-1
 86 481 l 2,75,76
 79 474 79 474 72 481 c 2,77,-1
 48 506 l 2,78,79
 45 509 45 509 46 513 c 2,80,-1
 46 865 l 2,81,82
 46 869 46 869 48 872 c 2,83,-1
 72 898 l 2,84,85
 79 905 79 905 86 898 c 2,86,-1
 161 822 l 2,87,88
 164 819 164 819 164 815 c 2,89,-1
 164 564 l 2,72,73
502 481 m 2,90,91
 509 474 509 474 502 468 c 2,92,-1
 452 418 l 2,93,94
 449 415 449 415 446 415 c 2,95,-1
 167 415 l 2,96,97
 163 415 163 415 160 418 c 2,98,-1
 110 468 l 2,99,100
 103 475 103 475 110 481 c 2,101,-1
 160 532 l 2,102,103
 163 535 163 535 167 535 c 2,104,-1
 446 535 l 2,105,106
 450 535 450 535 452 532 c 2,107,-1
 502 481 l 2,90,91
164 135 m 2,108,109
 164 131 164 131 161 128 c 2,110,-1
 86 52 l 2,111,112
 79 45 79 45 72 52 c 2,113,-1
 48 79 l 2,114,115
 45 82 45 82 46 86 c 2,116,-1
 46 437 l 2,117,118
 46 441 46 441 48 444 c 2,119,-1
 72 469 l 2,120,121
 79 476 79 476 86 469 c 2,122,-1
 161 393 l 2,123,124
 164 390 164 390 164 386 c 2,125,-1
 164 135 l 2,108,109
EndSplineSet
Validated: 1
EndChar

StartChar: question
Encoding: 63 63 63
Width: 616
VWidth: 1379
GlyphClass: 1
Flags: W
LayerCount: 2
Fore
SplineSet
439 834 m 2,0,1
 436 831 436 831 432 832 c 2,2,-1
 183 832 l 2,3,4
 179 832 179 832 177 834 c 2,5,-1
 77 934 l 2,6,7
 71 940 71 940 73.5 945 c 128,-1,8
 76 950 76 950 83 950 c 2,9,-1
 483 950 l 2,10,11
 487 950 487 950 490 948 c 2,12,-1
 514 924 l 2,13,14
 521 917 521 917 514 910 c 2,15,-1
 439 834 l 2,0,1
567 513 m 2,16,17
 567 509 567 509 564 506 c 2,18,-1
 541 481 l 2,19,20
 534 474 534 474 527 481 c 2,21,-1
 451 557 l 2,22,23
 448 560 448 560 448 564 c 2,24,-1
 448 815 l 2,25,26
 448 819 448 819 451 822 c 2,27,-1
 527 898 l 2,28,29
 534 905 534 905 541 898 c 2,30,-1
 564 872 l 2,31,32
 567 869 567 869 567 865 c 2,33,-1
 567 513 l 2,16,17
502 481 m 2,34,35
 509 474 509 474 502 468 c 2,36,-1
 452 418 l 2,37,38
 449 415 449 415 446 415 c 2,39,-1
 335 415 l 2,40,41
 331 415 331 415 328 418 c 2,42,-1
 279 468 l 2,43,44
 272 475 272 475 279 481 c 2,45,-1
 328 532 l 2,46,47
 331 535 331 535 335 535 c 2,48,-1
 446 535 l 2,49,50
 450 535 450 535 452 532 c 2,51,-1
 502 481 l 2,34,35
332 222 m 2,52,53
 332 218 332 218 330 215 c 2,54,-1
 254 141 l 2,55,56
 247 134 247 134 240 141 c 2,57,-1
 217 166 l 2,58,59
 214 169 214 169 214 172 c 2,60,-1
 214 439 l 2,61,62
 214 443 214 443 217 446 c 2,63,-1
 240 469 l 2,64,65
 247 476 247 476 254 469 c 2,66,-1
 330 393 l 2,67,68
 333 390 333 390 332 386 c 2,69,-1
 332 222 l 2,52,53
332 10 m 2,70,71
 332 0 332 0 323 0 c 2,72,-1
 222 0 l 2,73,74
 214 0 214 0 214 10 c 2,75,-1
 214 108 l 2,76,77
 214 118 214 118 222 117 c 2,78,-1
 323 117 l 2,79,80
 333 117 333 117 332 108 c 2,81,-1
 332 10 l 2,70,71
EndSplineSet
Validated: 1
EndChar

StartChar: hyphen
Encoding: 45 45 64
Width: 616
VWidth: 1379
GlyphClass: 1
Flags: W
LayerCount: 2
Fore
SplineSet
502 481 m 2,0,1
 509 474 509 474 502 468 c 2,2,-1
 452 418 l 2,3,4
 449 415 449 415 446 415 c 2,5,-1
 167 415 l 2,6,7
 163 415 163 415 160 418 c 2,8,-1
 110 468 l 2,9,10
 103 475 103 475 110 481 c 2,11,-1
 160 532 l 2,12,13
 163 535 163 535 167 535 c 2,14,-1
 446 535 l 2,15,16
 450 535 450 535 452 532 c 2,17,-1
 502 481 l 2,0,1
EndSplineSet
Validated: 1
EndChar

StartChar: colon
Encoding: 58 58 65
Width: 616
VWidth: 1379
GlyphClass: 1
Flags: W
LayerCount: 2
Fore
SplineSet
170 261 m 2,0,1
 170 251 170 251 160 251 c 2,2,-1
 61 251 l 2,3,4
 51 251 51 251 51 261 c 2,5,-1
 51 361 l 2,6,7
 51 371 51 371 61 371 c 2,8,-1
 160 371 l 2,9,10
 170 371 170 371 170 361 c 2,11,-1
 170 261 l 2,0,1
170 646 m 2,12,13
 170 636 170 636 160 636 c 2,14,-1
 61 636 l 2,15,16
 51 636 51 636 51 646 c 2,17,-1
 51 745 l 2,18,19
 51 755 51 755 61 754 c 2,20,-1
 160 754 l 2,21,22
 170 754 170 754 170 745 c 2,23,-1
 170 646 l 2,12,13
EndSplineSet
Validated: 1
EndChar

StartChar: period
Encoding: 46 46 66
Width: 616
VWidth: 1379
GlyphClass: 1
Flags: W
LayerCount: 2
Fore
SplineSet
152 117 m 6,0,1
 160 117 160 117 160 108 c 6,2,-1
 160 10 l 6,3,4
 160 0 160 0 152 0 c 6,5,-1
 51 0 l 6,6,7
 41 0 41 0 41 10 c 6,8,-1
 41 108 l 6,9,10
 41 118 41 118 51 117 c 6,11,-1
 152 117 l 6,0,1
EndSplineSet
Validated: 1
EndChar

StartChar: comma
Encoding: 44 44 67
Width: 616
VWidth: 1379
GlyphClass: 1
Flags: W
LayerCount: 2
Fore
SplineSet
166 -63 m 2,0,1
 166 -67 166 -67 163 -70 c 2,2,-1
 113 -121 l 2,3,4
 106 -128 106 -128 99 -121 c 2,5,-1
 48 -70 l 2,6,7
 45 -67 45 -67 46 -63 c 2,8,-1
 46 105 l 2,9,10
 46 115 46 115 55 114 c 2,11,-1
 156 114 l 2,12,13
 166 114 166 114 166 105 c 2,14,-1
 166 -63 l 2,0,1
EndSplineSet
Validated: 1
EndChar

StartChar: semicolon
Encoding: 59 59 68
Width: 616
VWidth: 1379
GlyphClass: 1
Flags: W
LayerCount: 2
Fore
SplineSet
170 646 m 2,0,1
 170 636 170 636 160 636 c 2,2,-1
 61 636 l 2,3,4
 51 636 51 636 51 646 c 2,5,-1
 51 745 l 2,6,7
 51 755 51 755 61 754 c 2,8,-1
 160 754 l 2,9,10
 170 754 170 754 170 745 c 2,11,-1
 170 646 l 2,0,1
170 194 m 2,12,13
 170 190 170 190 167 188 c 2,14,-1
 117 137 l 2,15,16
 110 130 110 130 103 137 c 2,17,-1
 52 188 l 2,18,19
 49 191 49 191 50 194 c 2,20,-1
 50 364 l 2,21,22
 50 374 50 374 59 374 c 2,23,-1
 160 374 l 2,24,25
 170 374 170 374 170 364 c 2,26,-1
 170 194 l 2,12,13
EndSplineSet
Validated: 1
EndChar

StartChar: parenleft
Encoding: 40 40 69
Width: 616
VWidth: 1379
GlyphClass: 1
Flags: W
LayerCount: 2
Fore
SplineSet
243 834 m 2,0,1
 240 831 240 831 236 832 c 2,2,-1
 181 832 l 2,3,4
 177 832 177 832 174 834 c 2,5,-1
 98 910 l 2,6,7
 91 917 91 917 98 924 c 2,8,-1
 123 949 l 2,9,10
 126 952 126 952 130 952 c 2,11,-1
 286 952 l 2,12,13
 290 952 290 952 292 949 c 2,14,-1
 317 924 l 2,15,16
 324 917 324 917 317 910 c 2,17,-1
 243 834 l 2,0,1
87 481 m 2,18,19
 80 474 80 474 73 481 c 2,20,-1
 48 508 l 2,21,22
 45 511 45 511 46 514 c 2,23,-1
 46 866 l 2,24,25
 46 870 46 870 48 873 c 2,26,-1
 73 898 l 2,27,28
 80 905 80 905 87 898 c 2,29,-1
 163 823 l 2,30,31
 166 820 166 820 166 817 c 2,32,-1
 166 564 l 2,33,34
 166 560 166 560 163 557 c 2,35,-1
 87 481 l 2,18,19
87 54 m 2,36,37
 80 47 80 47 73 54 c 2,38,-1
 48 79 l 2,39,40
 45 82 45 82 46 86 c 2,41,-1
 46 439 l 2,42,43
 46 443 46 443 48 446 c 2,44,-1
 73 470 l 2,45,46
 80 477 80 477 87 470 c 2,47,-1
 163 394 l 2,48,49
 166 391 166 391 166 388 c 2,50,-1
 166 135 l 2,51,52
 166 131 166 131 163 128 c 2,53,-1
 87 54 l 2,36,37
292 3 m 2,54,55
 289 0 289 0 286 0 c 2,56,-1
 130 0 l 2,57,58
 126 0 126 0 123 3 c 2,59,-1
 98 29 l 2,60,61
 92 36 92 36 98 41 c 2,62,-1
 174 117 l 2,63,64
 177 120 177 120 181 120 c 2,65,-1
 236 120 l 2,66,67
 240 120 240 120 243 117 c 2,68,-1
 317 41 l 2,69,70
 323 35 323 35 317 29 c 2,71,-1
 292 3 l 2,54,55
EndSplineSet
Validated: 1
EndChar

StartChar: parenright
Encoding: 41 41 70
Width: 616
VWidth: 1379
GlyphClass: 1
Flags: W
LayerCount: 2
Fore
SplineSet
370 834 m 2,0,1
 370 834 370 834 295 910 c 2,2,3
 288 917 288 917 295 924 c 2,4,5
 295 924 295 924 320 949 c 2,6,7
 323 952 323 952 327 952 c 2,8,9
 327 952 327 952 483 952 c 2,10,11
 487 952 487 952 490 949 c 2,12,13
 490 949 490 949 514 924 c 2,14,15
 521 917 521 917 514 910 c 2,16,17
 514 910 514 910 439 834 c 2,18,19
 436 831 436 831 432 832 c 2,20,21
 432 832 432 832 377 832 c 2,22,23
 373 831 373 831 370 834 c 2,0,1
526 481 m 2,24,25
 526 481 526 481 450 557 c 2,26,27
 447 560 447 560 447 564 c 2,28,29
 447 564 447 564 447 817 c 2,30,31
 447 821 447 821 450 823 c 2,32,33
 450 823 450 823 526 898 c 2,34,35
 533 905 533 905 539 898 c 2,36,37
 539 898 539 898 564 873 c 2,38,39
 567 870 567 870 567 866 c 2,40,41
 567 866 567 866 567 514 c 2,42,43
 567 510 567 510 564 508 c 2,44,45
 564 508 564 508 539 481 c 2,46,47
 533 474 533 474 526 481 c 2,24,25
526 54 m 2,48,49
 526 54 526 54 450 128 c 2,50,51
 447 131 447 131 447 135 c 2,52,53
 447 135 447 135 447 388 c 2,54,55
 447 392 447 392 450 394 c 2,56,57
 450 394 450 394 526 470 c 2,58,59
 533 477 533 477 539 470 c 2,60,61
 539 470 539 470 564 446 c 2,62,63
 567 443 567 443 567 439 c 2,64,65
 567 439 567 439 567 86 c 2,66,67
 567 82 567 82 564 79 c 2,68,69
 564 79 564 79 539 54 c 2,70,71
 533 47 533 47 526 54 c 2,48,49
320 3 m 2,72,73
 320 3 320 3 295 29 c 2,74,75
 289 36 289 36 295 41 c 2,76,77
 295 41 295 41 370 117 c 2,78,79
 373 120 373 120 377 120 c 2,80,81
 377 120 377 120 432 120 c 2,82,83
 436 120 436 120 439 117 c 2,84,85
 439 117 439 117 514 41 c 2,86,87
 520 35 520 35 514 29 c 2,88,89
 514 29 514 29 490 3 c 2,90,91
 487 0 487 0 483 0 c 2,92,93
 483 0 483 0 327 0 c 2,94,95
 323 0 323 0 320 3 c 2,72,73
EndSplineSet
Validated: 1
EndChar

StartChar: B
Encoding: 66 66 71
Width: 616
VWidth: 1379
GlyphClass: 1
Flags: W
LayerCount: 2
Fore
SplineSet
490 3 m 2,0,1
 487 0 487 0 483 0 c 2,2,-1
 80 0 l 2,3,4
 73 0 73 0 70.5 5.5 c 128,-1,5
 68 11 68 11 73 17 c 2,6,-1
 174 116 l 2,7,8
 177 119 177 119 181 119 c 2,9,-1
 433 119 l 2,10,11
 437 119 437 119 440 116 c 2,12,-1
 514 40 l 2,13,14
 520 33 520 33 514 28 c 2,15,-1
 490 3 l 2,0,1
539 52 m 2,16,17
 532 45 532 45 527 52 c 2,18,-1
 451 128 l 2,19,20
 448 131 448 131 448 135 c 2,21,-1
 448 386 l 2,22,23
 448 390 448 390 451 393 c 2,24,-1
 527 469 l 2,25,26
 533 475 533 475 539 469 c 2,27,-1
 566 444 l 2,28,29
 569 441 569 441 568 437 c 2,30,-1
 568 84 l 2,31,32
 568 80 568 80 566 77 c 2,33,-1
 539 52 l 2,16,17
539 481 m 2,34,35
 532 474 532 474 527 481 c 2,36,-1
 451 556 l 2,37,38
 448 559 448 559 448 563 c 2,39,-1
 448 815 l 2,40,41
 448 819 448 819 451 822 c 2,42,-1
 527 898 l 2,43,44
 533 904 533 904 539 898 c 2,45,-1
 566 872 l 2,46,47
 569 869 569 869 568 865 c 2,48,-1
 568 513 l 2,49,50
 568 509 568 509 566 506 c 2,51,-1
 539 481 l 2,34,35
440 833 m 2,52,53
 437 830 437 830 433 830 c 2,54,-1
 181 830 l 2,55,56
 177 830 177 830 174 833 c 2,57,-1
 148 859 l 2,58,59
 129 876 129 876 110 896 c 128,-1,60
 91 916 91 916 73 934 c 0,61,62
 69 940 69 940 71 945 c 128,-1,63
 73 950 73 950 80 950 c 2,64,-1
 483 950 l 2,65,66
 487 950 487 950 490 948 c 2,67,-1
 514 923 l 2,68,69
 521 916 521 916 514 909 c 2,70,-1
 440 833 l 2,52,53
87 481 m 2,71,72
 80 474 80 474 73 481 c 2,73,-1
 48 506 l 2,74,75
 45 509 45 509 46 513 c 2,76,-1
 46 916 l 2,77,78
 46 923 46 923 50.5 925.5 c 128,-1,79
 55 928 55 928 61 923 c 2,80,-1
 163 822 l 2,81,82
 166 819 166 819 166 815 c 2,83,-1
 166 563 l 2,84,85
 166 559 166 559 163 556 c 2,86,-1
 87 481 l 2,71,72
452 418 m 2,87,88
 449 415 449 415 446 415 c 2,89,-1
 168 415 l 2,90,91
 164 415 164 415 161 418 c 2,92,-1
 110 468 l 2,93,94
 103 475 103 475 110 481 c 2,95,-1
 161 532 l 2,96,97
 164 535 164 535 168 535 c 2,98,-1
 446 535 l 2,99,100
 450 535 450 535 452 532 c 2,101,-1
 503 481 l 2,102,103
 510 474 510 474 503 468 c 2,104,-1
 452 418 l 2,87,88
61 28 m 2,105,106
 55 22 55 22 50.5 25 c 128,-1,107
 46 28 46 28 46 34 c 2,108,-1
 46 437 l 2,109,110
 46 441 46 441 48 444 c 2,111,-1
 73 469 l 2,112,113
 80 476 80 476 87 469 c 2,114,-1
 163 393 l 2,115,116
 166 390 166 390 166 386 c 2,117,-1
 166 135 l 2,118,119
 166 131 166 131 163 128 c 2,120,-1
 61 28 l 2,105,106
EndSplineSet
Validated: 1
EndChar

StartChar: C
Encoding: 67 67 72
Width: 616
VWidth: 1379
GlyphClass: 1
Flags: W
LayerCount: 2
Fore
SplineSet
434 832 m 1,0,-1
 179 832 l 2,1,2
 175 832 175 832 172 834 c 2,3,-1
 97 910 l 2,4,5
 90 917 90 917 97 924 c 2,6,-1
 121 948 l 2,7,8
 124 951 124 951 128 950 c 2,9,-1
 531 950 l 2,10,11
 538 950 538 950 540.5 944.5 c 128,-1,12
 543 939 543 939 538 934 c 2,13,-1
 434 832 l 1,0,-1
84 481 m 2,14,15
 77 474 77 474 70 481 c 2,16,-1
 46 506 l 2,17,18
 45 507 45 507 44 513 c 2,19,-1
 44 865 l 2,20,21
 44 871 44 871 46 872 c 2,22,-1
 70 898 l 2,23,24
 77 905 77 905 84 898 c 2,25,-1
 160 822 l 2,26,27
 163 819 163 819 163 815 c 2,28,-1
 163 564 l 2,29,30
 163 560 163 560 160 557 c 2,31,-1
 84 481 l 2,14,15
538 17 m 2,32,33
 544 11 544 11 541 5.5 c 128,-1,34
 538 0 538 0 531 0 c 2,35,-1
 128 0 l 2,36,37
 124 0 124 0 121 3 c 2,38,-1
 97 28 l 2,39,40
 90 34 90 34 97 40 c 2,41,-1
 172 116 l 2,42,43
 175 119 175 119 179 119 c 2,44,-1
 430 119 l 2,45,46
 434 119 434 119 437 116 c 2,47,-1
 538 17 l 2,32,33
84 52 m 2,48,49
 77 45 77 45 70 52 c 2,50,-1
 46 79 l 2,51,52
 45 80 45 80 44 86 c 2,53,-1
 44 439 l 2,54,55
 44 445 44 445 46 446 c 2,56,-1
 70 469 l 2,57,58
 77 476 77 476 84 469 c 2,59,-1
 160 393 l 2,60,61
 163 390 163 390 163 386 c 2,62,-1
 163 135 l 2,63,64
 163 131 163 131 160 128 c 2,65,-1
 84 52 l 2,48,49
EndSplineSet
Validated: 1
EndChar

StartChar: A
Encoding: 65 65 73
Width: 616
VWidth: 1379
GlyphClass: 1
Flags: W
LayerCount: 2
Fore
SplineSet
450 103 m 2,0,1
 447 103 447 103 447 109 c 2,2,-1
 447 386 l 2,3,4
 447 390 447 390 450 393 c 2,5,-1
 526 469 l 2,6,7
 532 475 532 475 538 469 c 2,8,-1
 563 444 l 2,9,10
 566 441 566 441 566 437 c 2,11,-1
 566 10 l 2,12,13
 566 3 566 3 560 0 c 128,-1,14
 554 -3 554 -3 549 3 c 2,15,-1
 450 103 l 2,0,1
566 513 m 2,16,17
 566 509 566 509 563 506 c 2,18,-1
 538 481 l 2,19,20
 531 474 531 474 526 481 c 2,21,-1
 450 556 l 2,22,23
 447 559 447 559 447 563 c 2,24,-1
 447 815 l 2,25,26
 447 819 447 819 450 822 c 2,27,-1
 549 923 l 2,28,29
 555 929 555 929 560.5 926 c 128,-1,30
 566 923 566 923 566 916 c 2,31,-1
 566 513 l 2,16,17
437 833 m 2,32,33
 434 830 434 830 430 830 c 2,34,-1
 179 830 l 2,35,36
 175 830 175 830 172 833 c 2,37,-1
 70 934 l 2,38,39
 64 940 64 940 67 945 c 128,-1,40
 70 950 70 950 77 950 c 2,41,-1
 532 950 l 2,42,43
 539 950 539 950 541 944.5 c 128,-1,44
 543 939 543 939 538 934 c 2,45,-1
 437 833 l 2,32,33
163 563 m 2,46,47
 163 559 163 559 160 556 c 2,48,-1
 84 481 l 2,49,50
 77 474 77 474 70 481 c 2,51,-1
 47 506 l 2,52,53
 44 509 44 509 44 513 c 2,54,-1
 44 916 l 2,55,56
 44 923 44 923 49 925.5 c 128,-1,57
 54 928 54 928 59 923 c 2,58,-1
 160 822 l 2,59,60
 163 819 163 819 163 815 c 2,61,-1
 163 563 l 2,46,47
451 418 m 2,62,63
 448 415 448 415 444 415 c 2,64,-1
 166 415 l 2,65,66
 162 415 162 415 159 418 c 2,67,-1
 109 468 l 2,68,69
 102 475 102 475 109 481 c 2,70,-1
 159 532 l 2,71,72
 162 535 162 535 166 535 c 2,73,-1
 444 535 l 2,74,75
 448 535 448 535 451 532 c 2,76,-1
 501 481 l 2,77,78
 508 474 508 474 501 468 c 2,79,-1
 451 418 l 2,62,63
59 3 m 2,80,81
 53 -3 53 -3 48.5 0 c 128,-1,82
 44 3 44 3 44 10 c 2,83,-1
 44 437 l 2,84,85
 44 441 44 441 47 444 c 2,86,-1
 70 469 l 2,87,88
 77 476 77 476 84 469 c 2,89,-1
 160 393 l 2,90,91
 163 390 163 390 163 386 c 2,92,-1
 163 109 l 2,93,94
 163 103 163 103 160 103 c 2,95,-1
 59 3 l 2,80,81
EndSplineSet
Validated: 1
EndChar
